<?xml version="1.0" encoding="UTF-8" standalone="no"?>
<!-- Creator: CorelDRAW -->

<svg
   xml:space="preserve"
   width="95.252846mm"
   height="14.346633mm"
   version="1.1"
   style="clip-rule:evenodd;fill-rule:evenodd;image-rendering:optimizeQuality;shape-rendering:geometricPrecision;text-rendering:geometricPrecision"
   viewBox="0 0 9489.5945 1429.2933"
   id="svg8"
   sodipodi:docname="logo-dzemat.svg"
   inkscape:version="1.3-dev (52b83b2fb, 2023-02-11)"
   xmlns:inkscape="http://www.inkscape.org/namespaces/inkscape"
   xmlns:sodipodi="http://sodipodi.sourceforge.net/DTD/sodipodi-0.dtd"
   xmlns="http://www.w3.org/2000/svg"
   xmlns:svg="http://www.w3.org/2000/svg"><sodipodi:namedview
   id="namedview8"
   pagecolor="#ffffff"
   bordercolor="#000000"
   borderopacity="0.25"
   inkscape:showpageshadow="2"
   inkscape:pageopacity="0.0"
   inkscape:pagecheckerboard="0"
   inkscape:deskcolor="#d1d1d1"
   inkscape:document-units="mm"
   showgrid="false"
   inkscape:zoom="2.7808137"
   inkscape:cx="183.39956"
   inkscape:cy="54.840064"
   inkscape:window-width="1920"
   inkscape:window-height="1001"
   inkscape:window-x="-9"
   inkscape:window-y="-9"
   inkscape:window-maximized="1"
   inkscape:current-layer="Layer_x0020_1" />
 <defs
   id="defs1"><style
     type="text/css"
     id="style1">
   <![CDATA[
    .fil0 {fill:#00763A}
    .fil1 {fill:#AF9B6F}
    .fil2 {fill:#00763A;fill-rule:nonzero}
    .fil3 {fill:#AF9B6F;fill-rule:nonzero}
   ]]>
  </style></defs>
 <g
   id="Layer_x0020_1"
   inkscape:label="Layer 1"
   inkscape:groupmode="layer"
   transform="translate(-0.03934743,0.0105113)">
  <metadata
   id="CorelCorpID_0Corel-Layer" />
  
  
  
  
  
  <g
   id="g8"
   inkscape:export-filename="..\Documents\dzematWebSite\img\logo-dzemat.svg"
   inkscape:export-xdpi="96"
   inkscape:export-ydpi="96"><path
     class="fil0"
     d="M 1114.77,1302.07 C 919.54,1329.31 749.45,1358.17 549.29,1197.14 228.79,939.32 245.1,472.58 551.66,233.62 708.16,111.62 887.43,76.34 1115.24,133.08 1078.04,65.51 865.31,8.9 767.39,1.88 610.75,-9.34 478.64,30.54 366.55,90.78 c -432.35,232.35 -536.13,909.26 -15.7,1241.71 258.16,164.9 681,94.97 763.93,-30.43 z"
     id="path1" /><path
     class="fil1"
     d="m 953.21,359 c -0.74,86.56 8.25,226.16 -11.45,301.19 109.77,-19.54 78.85,-185.5 84.87,-257.64 7.96,3.62 15.23,17.38 34.77,4.28 l -41.37,-82.84 c -35.81,7.58 -43.86,13.58 -66.82,35.01 z"
     id="path2" /><path
     class="fil1"
     d="m 1357.6,924.28 c 31.92,13.94 59.52,32.9 96.37,43.46 l 23.67,-63.97 c -40.79,-69.29 -113.71,-149.94 -152.45,-219.16 -12.78,-22.86 -4.84,-14.47 -19.03,-30.13 -51.01,87.44 23.49,176.61 81.66,240.46 -5.45,22.75 13.7,2.19 -30.23,29.34 z"
     id="path3" /><path
     class="fil1"
     d="m 1123.15,538.07 c 134,50 83.79,39.45 227.02,-2.84 25.63,-7.56 28.96,-7.27 40.29,2.76 l 10.23,13.92 c 1.36,1.75 3.11,5.67 5.09,8.21 23.27,-49.59 36.64,-33.85 61.47,-81.82 l -41.7,-36.75 c -19.15,2.22 -276.15,74.37 -302.39,96.53 z"
     id="path4" /><path
     class="fil1"
     d="m 729.57,771.97 c 65.85,15.47 258.39,77.16 286.27,104.93 10.98,-98.24 -113.66,-130.96 -204.79,-154.55 l -10.53,-34.43 -79.08,10.5 z"
     id="path5" /><path
     class="fil1"
     d="m 1151.61,980.97 c 14.97,-20.79 30.87,-44.56 44.12,-61.37 18.51,-23.45 34.03,-31.19 47.47,-55.83 -73.13,-1.22 -98.77,13.58 -133.36,54.81 -30.56,36.42 -58.66,70.23 -81.37,113.08 l -26,-33.48 -14.82,105.24 65.69,5.55 98.27,-128.01 z"
     id="path6" /></g>
  
  
 <g
   aria-label="DŽEMAT BOSANSKE DŽAMIJE Alipašino Polje C-faza"
   id="text8"
   style="font-size:421.749px;line-height:100%;display:none;fill:#af9b6f;fill-opacity:0.992157;stroke-width:26.3593"><path
     d="M 1811.3952,715.86078 V 316.07789 h 123.0101 q 52.7187,0 94.1797,23.88813 41.7355,23.61355 65.0745,67.54573 23.339,43.65761 23.339,99.39657 v 18.39661 q 0,55.73896 -23.0644,99.12199 -22.7898,43.38303 -64.5254,67.27116 -41.7356,23.88812 -94.1796,24.1627 z m 82.3729,-333.06088 v 266.88802 h 39.8135 q 48.3254,0 73.861,-31.57625 25.5356,-31.57626 26.0847,-90.33556 v -21.14236 q 0,-60.95591 -25.261,-92.25759 -25.261,-31.57626 -73.861,-31.57626 z"
     style="font-weight:bold;font-size:562.332px;font-family:Roboto;-inkscape-font-specification:'Roboto Bold';fill:#00763a;fill-opacity:1"
     id="path7" /><path
     d="m 2257.856,649.68792 h 201.5389 v 66.17286 H 2154.89 v -48.3254 L 2352.5848,382.7999 h -197.4202 v -66.72201 h 299.8371 v 47.2271 z m 49.6983,-401.70491 40.0881,-39.26439 h 67.8203 v 3.02033 l -82.9219,77.1559 h -50.2475 l -82.922,-77.70505 v -2.47118 h 67.8203 z"
     style="font-weight:bold;font-size:562.332px;font-family:Roboto;-inkscape-font-specification:'Roboto Bold';fill:#00763a;fill-opacity:1"
     id="path8" /><path
     d="m 2751.8186,542.60322 h -158.1559 v 107.0847 h 185.6135 v 66.17286 H 2511.2899 V 316.07789 h 267.4371 v 66.72201 h -185.0643 v 95.27793 h 158.1559 z"
     style="font-weight:bold;font-size:562.332px;font-family:Roboto;-inkscape-font-specification:'Roboto Bold';fill:#00763a;fill-opacity:1"
     id="path9" /><path
     d="m 2935.2354,316.07789 102.6915,289.95243 102.1423,-289.95243 h 108.1831 v 399.78289 h -82.6475 V 606.57947 l 8.2373,-188.63382 -107.9084,297.91513 h -56.5627 l -107.6339,-297.64056 8.2373,188.35925 v 109.28131 h -82.3728 V 316.07789 Z"
     style="font-weight:bold;font-size:562.332px;font-family:Roboto;-inkscape-font-specification:'Roboto Bold';fill:#00763a;fill-opacity:1"
     id="path10" /><path
     d="M 3550.8351,633.48793 H 3406.408 l -27.4576,82.37285 h -87.5898 l 148.8203,-399.78289 h 76.3322 l 149.644,399.78289 h -87.5898 z m -122.1864,-66.722 h 99.9457 L 3478.347,417.12192 Z"
     style="font-weight:bold;font-size:562.332px;font-family:Roboto;-inkscape-font-specification:'Roboto Bold';fill:#00763a;fill-opacity:1"
     id="path11" /><path
     d="M 3971.4858,382.7999 H 3849.0249 V 715.86078 H 3766.652 V 382.7999 h -120.8135 v -66.72201 h 325.6473 z"
     style="font-weight:bold;font-size:562.332px;font-family:Roboto;-inkscape-font-specification:'Roboto Bold';fill:#00763a;fill-opacity:1"
     id="path12" /><path
     d="M 4141.9978,715.86078 V 316.07789 h 140.0338 q 72.7627,0 110.3796,28.00677 37.6169,27.73219 37.6169,81.54912 0,29.37965 -15.1016,51.89489 -15.1017,22.24067 -42.0102,32.67457 30.7525,7.68813 48.3254,31.0271 17.8475,23.33898 17.8475,57.11184 0,57.661 -36.7932,87.31522 -36.7933,29.65423 -104.8881,30.20338 z m 82.3728,-174.08128 v 107.90842 h 70.5661 q 29.105,0 45.305,-13.7288 16.4746,-14.00339 16.4746,-38.44067 0,-54.91523 -56.8373,-55.73895 z m 0,-58.21015 h 60.9559 q 62.3288,-1.0983 62.3288,-49.69828 0,-27.18304 -15.9254,-38.98982 -15.6509,-12.08135 -49.6983,-12.08135 h -57.661 z"
     style="font-weight:bold;font-size:562.332px;font-family:Roboto;-inkscape-font-specification:'Roboto Bold';fill:#00763a;fill-opacity:1"
     id="path13" /><path
     d="m 4829.2617,525.03035 q 0,59.03387 -20.8678,103.51521 -20.8678,44.48134 -59.8576,68.64404 -38.7152,24.1627 -88.9627,24.1627 -49.6983,0 -88.6881,-23.88812 -38.9898,-23.88813 -60.4067,-68.09489 -21.417,-44.48134 -21.6915,-102.14233 v -19.76948 q 0,-59.03388 21.1423,-103.78979 21.417,-45.03049 60.1322,-68.91862 38.9898,-24.1627 88.9627,-24.1627 49.9728,0 88.6881,24.1627 38.9898,23.88813 60.1322,68.91862 21.4169,44.75591 21.4169,103.51521 z m -83.4712,-18.12203 q 0,-62.87794 -22.5152,-95.5525 -22.5153,-32.67456 -64.2508,-32.67456 -41.461,0 -63.9763,32.39998 -22.5152,32.12541 -22.7898,94.4542 v 19.49491 q 0,61.23048 22.5153,95.00335 22.5152,33.77287 64.7999,33.77287 41.461,0 63.7017,-32.39999 22.2407,-32.67456 22.5152,-95.00335 z"
     style="font-weight:bold;font-size:562.332px;font-family:Roboto;-inkscape-font-specification:'Roboto Bold';fill:#00763a;fill-opacity:1"
     id="path14" /><path
     d="m 5096.4243,610.97269 q 0,-23.33898 -16.4745,-35.6949 -16.4746,-12.63051 -59.3085,-26.35931 -42.8339,-14.00339 -67.8203,-27.45762 -68.0949,-36.79321 -68.0949,-99.12199 0,-32.39999 18.122,-57.661 18.3966,-25.53558 52.4441,-39.81354 34.322,-14.27796 76.8813,-14.27796 42.8339,0 76.3322,15.65084 33.4983,15.37627 51.8949,43.65761 18.6712,28.28134 18.6712,64.25082 h -82.3729 q 0,-27.45761 -17.2983,-42.5593 -17.2983,-15.37627 -48.6,-15.37627 -30.2033,0 -46.9525,12.90508 -16.7491,12.6305 -16.7491,33.49829 0,19.49491 19.4949,32.67457 19.7695,13.17965 57.9355,24.71185 70.2915,21.14236 102.417,52.44405 32.1254,31.30168 32.1254,77.97962 0,51.8949 -39.2644,81.54912 -39.2644,29.37965 -105.7118,29.37965 -46.1288,0 -84.0204,-16.74914 -37.8915,-17.02373 -57.9355,-46.40337 -19.7695,-29.37965 -19.7695,-68.09489 h 82.6474 q 0,66.17285 79.078,66.17285 29.3796,0 45.8542,-11.80677 16.4745,-12.08135 16.4745,-33.49829 z"
     style="font-weight:bold;font-size:562.332px;font-family:Roboto;-inkscape-font-specification:'Roboto Bold';fill:#00763a;fill-opacity:1"
     id="path15" /><path
     d="m 5460.5123,633.48793 h -144.427 l -27.4576,82.37285 h -87.5898 l 148.8203,-399.78289 h 76.3321 l 149.644,399.78289 h -87.5898 z m -122.1863,-66.722 h 99.9457 l -50.2475,-149.64401 z"
     style="font-weight:bold;font-size:562.332px;font-family:Roboto;-inkscape-font-specification:'Roboto Bold';fill:#00763a;fill-opacity:1"
     id="path16" /><path
     d="M 5938.2749,715.86078 H 5855.902 L 5695.5496,452.81682 v 263.04396 h -82.3729 V 316.07789 h 82.3729 L 5856.1766,579.671 V 316.07789 h 82.0983 z"
     style="font-weight:bold;font-size:562.332px;font-family:Roboto;-inkscape-font-specification:'Roboto Bold';fill:#00763a;fill-opacity:1"
     id="path17" /><path
     d="m 6217.5186,610.97269 q 0,-23.33898 -16.4746,-35.6949 -16.4746,-12.63051 -59.3084,-26.35931 -42.8339,-14.00339 -67.8204,-27.45762 -68.0948,-36.79321 -68.0948,-99.12199 0,-32.39999 18.122,-57.661 18.3966,-25.53558 52.444,-39.81354 34.3221,-14.27796 76.8814,-14.27796 42.8338,0 76.3321,15.65084 33.4983,15.37627 51.8949,43.65761 18.6712,28.28134 18.6712,64.25082 h -82.3728 q 0,-27.45761 -17.2983,-42.5593 -17.2983,-15.37627 -48.6,-15.37627 -30.2034,0 -46.9525,12.90508 -16.7492,12.6305 -16.7492,33.49829 0,19.49491 19.4949,32.67457 19.7695,13.17965 57.9356,24.71185 70.2915,21.14236 102.4169,52.44405 32.1254,31.30168 32.1254,77.97962 0,51.8949 -39.2644,81.54912 -39.2644,29.37965 -105.7118,29.37965 -46.1288,0 -84.0203,-16.74914 -37.8915,-17.02373 -57.9356,-46.40337 -19.7695,-29.37965 -19.7695,-68.09489 h 82.6475 q 0,66.17285 79.0779,66.17285 29.3796,0 45.8542,-11.80677 16.4746,-12.08135 16.4746,-33.49829 z"
     style="font-weight:bold;font-size:562.332px;font-family:Roboto;-inkscape-font-specification:'Roboto Bold';fill:#00763a;fill-opacity:1"
     id="path18" /><path
     d="m 6481.1117,555.5083 -42.8339,46.1288 V 715.86078 H 6355.905 V 316.07789 h 82.3728 v 181.22027 l 36.2441,-49.69829 101.8677,-131.52198 h 101.3186 l -141.9558,177.65078 146.0745,222.13211 h -98.0237 z"
     style="font-weight:bold;font-size:562.332px;font-family:Roboto;-inkscape-font-specification:'Roboto Bold';fill:#00763a;fill-opacity:1"
     id="path19" /><path
     d="M 6953.3829,542.60322 H 6795.227 v 107.0847 h 185.6135 v 66.17286 H 6712.8542 V 316.07789 h 267.4372 V 382.7999 H 6795.227 v 95.27793 h 158.1559 z"
     style="font-weight:bold;font-size:562.332px;font-family:Roboto;-inkscape-font-specification:'Roboto Bold';fill:#00763a;fill-opacity:1"
     id="path20" /><path
     d="M 7169.1999,715.86078 V 316.07789 H 7292.21 q 52.7186,0 94.1796,23.88813 41.7356,23.61355 65.0746,67.54573 23.339,43.65761 23.339,99.39657 v 18.39661 q 0,55.73896 -23.0644,99.12199 -22.7898,43.38303 -64.5254,67.27116 -41.7356,23.88812 -94.1796,24.1627 z m 82.3729,-333.06088 v 266.88802 h 39.8135 q 48.3254,0 73.861,-31.57625 25.5356,-31.57626 26.0847,-90.33556 v -21.14236 q 0,-60.95591 -25.261,-92.25759 -25.261,-31.57626 -73.861,-31.57626 z"
     style="font-weight:bold;font-size:562.332px;font-family:Roboto;-inkscape-font-specification:'Roboto Bold';fill:#00763a;fill-opacity:1"
     id="path21" /><path
     d="m 7615.6606,649.68792 h 201.5389 v 66.17286 h -304.5049 v -48.3254 L 7710.3894,382.7999 h -197.4203 v -66.72201 h 299.8372 v 47.2271 z m 49.6983,-401.70491 40.0881,-39.26439 h 67.8203 v 3.02033 l -82.922,77.1559 h -50.2474 l -82.922,-77.70505 v -2.47118 h 67.8203 z"
     style="font-weight:bold;font-size:562.332px;font-family:Roboto;-inkscape-font-specification:'Roboto Bold';fill:#00763a;fill-opacity:1"
     id="path22" /><path
     d="m 8098.3654,633.48793 h -144.4271 l -27.4576,82.37285 h -87.5898 l 148.8203,-399.78289 h 76.3322 l 149.644,399.78289 h -87.5898 z m -122.1864,-66.722 h 99.9457 l -50.2474,-149.64401 z"
     style="font-weight:bold;font-size:562.332px;font-family:Roboto;-inkscape-font-specification:'Roboto Bold';fill:#00763a;fill-opacity:1"
     id="path23" /><path
     d="m 8358.6638,316.07789 102.6915,289.95243 102.1424,-289.95243 h 108.183 v 399.78289 h -82.6475 V 606.57947 l 8.2373,-188.63382 -107.9084,297.91513 h -56.5627 l -107.6339,-297.64056 8.2373,188.35925 V 715.86078 H 8251.03 V 316.07789 Z"
     style="font-weight:bold;font-size:562.332px;font-family:Roboto;-inkscape-font-specification:'Roboto Bold';fill:#00763a;fill-opacity:1"
     id="path24" /><path
     d="m 8831.2091,715.86078 h -82.3728 V 316.07789 h 82.3728 z"
     style="font-weight:bold;font-size:562.332px;font-family:Roboto;-inkscape-font-specification:'Roboto Bold';fill:#00763a;fill-opacity:1"
     id="path25" /><path
     d="m 9068.7174,316.07789 h 82.3729 v 276.77277 q 0,38.16609 -17.0238,67.54574 -16.7491,29.10507 -47.5016,45.03048 -30.7526,15.92542 -69.4678,15.92542 -63.4271,0 -98.8474,-32.12541 -35.4203,-32.39999 -35.4203,-91.43386 h 82.922 q 0,29.37965 12.3559,43.38303 12.3559,14.00339 38.9898,14.00339 23.6136,0 37.6169,-16.2 14.0034,-16.19999 14.0034,-46.12879 z"
     style="font-weight:bold;font-size:562.332px;font-family:Roboto;-inkscape-font-specification:'Roboto Bold';fill:#00763a;fill-opacity:1"
     id="path26" /><path
     d="m 9462.1852,542.60322 h -158.1559 v 107.0847 h 185.6135 v 66.17286 H 9221.6564 V 316.07789 h 267.4372 v 66.72201 h -185.0643 v 95.27793 h 158.1559 z"
     style="font-weight:bold;font-size:562.332px;font-family:Roboto;-inkscape-font-specification:'Roboto Bold';fill:#00763a;fill-opacity:1"
     id="path27" /><path
     d="m 1830.8791,1038.1474 h 91.3788 l -1.4058,13.0039 h -96.6507 z m 62.5593,-129.68759 5.6233,4.56894 -100.5167,205.95385 q 0,1.7572 1.4059,3.5145 1.4058,1.7573 5.6233,2.8117 4.5689,1.0543 12.6524,1.0543 h 8.7864 l -2.1087,11.2467 h -67.8312 l 1.7573,-11.2467 h 2.4602 q 7.732,0 14.7612,-4.5689 7.3806,-4.5689 12.6524,-14.7612 l 107.5459,-218.9577 h 36.903 l 34.0913,227.0412 q 1.0544,7.0292 5.9748,9.1379 5.2718,2.1087 11.9495,2.1087 h 1.7573 l -2.1088,11.2467 h -92.0817 l 1.7573,-11.2467 h 5.6233 q 5.2719,0 10.5437,-0.3514 5.6233,-0.7029 9.1379,-1.4058 3.866,-1.0544 4.2175,-2.1088 z"
     style="font-style:italic;font-weight:500;font-size:351.457px;font-family:'Roboto Serif';-inkscape-font-specification:'Roboto Serif Medium Italic';fill-rule:nonzero"
     id="path28" /><path
     d="m 2052.6483,900.3763 q 1.0544,-4.56894 -1.0543,-7.02914 -2.1088,-2.81166 -6.6777,-4.56894 -4.569,-1.75729 -11.9496,-2.81166 l -4.2175,-0.70291 2.1088,-11.24663 h 68.5341 L 2059.326,1099.301 q -0.7029,2.8116 -1.0544,5.2718 -0.3514,2.4602 -0.7029,4.9204 0,2.1088 0,4.2175 0,6.3262 2.8117,9.1379 2.8116,2.8116 8.7864,2.8116 4.9204,0 9.1379,-1.4058 4.5689,-1.7573 8.435,-3.866 3.866,-2.4602 6.3262,-3.866 l -2.8117,11.9495 q -3.1631,2.8116 -8.7864,5.9748 -5.6233,2.8116 -12.6525,4.5689 -6.6776,2.1087 -14.7611,2.1087 -10.8952,0 -19.3302,-3.866 -8.0835,-3.866 -13.0039,-11.5981 -4.5689,-8.0835 -4.5689,-20.033 0,-2.8117 0,-5.2719 0.3514,-2.8116 0.7029,-5.9747 0.7029,-3.5146 1.4058,-7.0292 z"
     style="font-style:italic;font-weight:500;font-size:351.457px;font-family:'Roboto Serif';-inkscape-font-specification:'Roboto Serif Medium Italic';fill-rule:nonzero"
     id="path29" /><path
     d="m 2125.0484,1105.6272 q 0,-2.4602 0.3515,-5.2719 0.3514,-2.8116 0.7029,-5.9747 0.7029,-3.5146 1.4058,-7.0292 l 18.9787,-105.78854 q 1.0543,-4.56894 -1.4059,-7.02914 -2.1087,-2.81165 -6.6776,-4.56894 -4.569,-1.75728 -11.9496,-2.81165 l -3.866,-0.70292 1.7573,-11.24662 h 68.5341 l -25.6564,144.09741 q -0.3514,2.8116 -0.7029,5.2718 -0.3514,2.4602 -0.7029,4.9204 -0.3514,2.4602 -0.3514,4.2175 0,6.3262 2.8116,9.1379 3.1631,2.8116 9.1379,2.8116 4.5689,0 9.1379,-1.4058 4.5689,-1.7573 8.4349,-3.866 3.8661,-2.4602 6.3263,-3.866 l -2.8117,11.9495 q -3.1631,2.8116 -8.7864,5.9748 -5.6233,2.8116 -12.6525,4.5689 -6.6777,2.1087 -14.7612,2.1087 -10.8951,0 -19.3301,-3.866 -8.435,-3.866 -13.3554,-11.5981 -4.5689,-8.0835 -4.5689,-20.033 z m 29.1709,-212.28004 q 0,-11.24663 7.3806,-17.2214 7.3806,-6.32622 18.9787,-6.32622 11.2466,0 18.2758,6.32622 7.3806,5.97477 7.3806,17.2214 0,11.24662 -7.3806,17.57285 -7.0292,6.32622 -18.2758,6.32622 -11.5981,0 -18.9787,-6.32622 -7.3806,-6.32623 -7.3806,-17.57285 z"
     style="font-style:italic;font-weight:500;font-size:351.457px;font-family:'Roboto Serif';-inkscape-font-specification:'Roboto Serif Medium Italic';fill-rule:nonzero"
     id="path30" /><path
     d="m 2187.9592,1215.9847 2.1087,-11.2466 h 0.703 q 11.9495,0 18.9786,-2.4602 7.0292,-2.4602 8.0836,-8.7865 l 37.6058,-211.92854 q 1.0544,-4.92039 -1.0543,-7.38059 -2.1088,-2.4602 -6.6777,-4.21749 -4.5689,-1.75728 -11.9495,-2.81165 l -3.8661,-0.70292 1.7573,-11.24662 h 65.7225 l -7.7321,45.68941 2.4602,0.7029 -35.4971,199.6276 q 0,1.0544 3.1631,1.7573 3.1631,0.7029 7.732,1.0543 4.569,0.3515 8.435,0.3515 3.866,0.3515 4.9204,0.3515 h 3.866 l -2.1087,11.2466 z m 63.2623,-102.9769 9.1378,-19.3302 q 5.6234,11.5981 13.3554,19.6816 7.7321,7.7321 16.8699,11.5981 9.4894,3.866 20.0331,3.866 12.301,0 22.1418,-6.6776 10.1922,-6.6777 17.5728,-18.2758 7.7321,-11.5981 12.6525,-26.0078 5.2718,-14.4098 7.732,-29.8739 2.8117,-15.8155 2.8117,-30.5767 0,-14.4098 -3.5146,-24.95347 -3.5145,-10.54371 -10.1922,-16.16702 -6.3262,-5.62331 -16.167,-5.62331 -13.3554,0 -23.5477,7.73205 -9.8408,7.73205 -18.9786,22.49325 -8.7865,14.4097 -18.2758,35.8486 l -5.9748,-7.3806 q 10.8952,-26.3593 22.4933,-43.2292 11.5981,-17.22139 26.0078,-25.65636 14.4097,-8.78642 33.7399,-8.78642 17.2214,0 30.2253,8.43497 13.0039,8.43496 20.3845,24.25053 7.732,15.81558 7.732,37.60588 0,16.5185 -4.2175,33.7399 -4.2174,16.8699 -12.6524,32.334 -8.435,15.1127 -21.0874,27.4137 -12.6525,11.9495 -29.5224,18.9787 -16.87,6.6776 -37.9574,6.6776 -12.301,0 -23.5476,-3.866 -10.8952,-3.866 -20.3845,-9.8408 -9.4893,-6.3262 -16.8699,-14.4097 z"
     style="font-style:italic;font-weight:500;font-size:351.457px;font-family:'Roboto Serif';-inkscape-font-specification:'Roboto Serif Medium Italic';fill-rule:nonzero"
     id="path31" /><path
     d="m 2598.8125,987.18618 -6.3262,11.24662 q -5.2719,-10.54371 -12.301,-17.57285 -6.6777,-7.3806 -14.7612,-10.89517 -8.0835,-3.86602 -18.6272,-3.86602 -11.9495,0 -21.7903,7.02914 -9.8408,6.67768 -17.5729,18.27576 -7.3806,11.24664 -12.6524,25.65634 -4.9204,14.4098 -7.7321,30.2253 -2.8117,15.4641 -2.8117,30.2253 0,15.8156 3.5146,26.0078 3.5146,9.8408 9.8408,14.7612 6.3262,4.9204 14.4097,4.9204 13.3554,0 23.5477,-9.4893 10.1922,-9.8408 18.6272,-26.0078 8.435,-16.167 16.167,-34.7943 l 9.1379,6.6777 q -10.8952,23.5476 -21.7903,41.8234 -10.8952,18.2758 -24.2506,29.1709 -13.0039,10.5437 -32.334,10.5437 -16.87,0 -30.9282,-8.0835 -13.7069,-8.4349 -21.7904,-23.899 -8.0835,-15.4642 -8.0835,-37.6059 0,-16.87 4.2175,-34.0914 4.2175,-17.2214 12.301,-32.334 8.435,-15.46413 20.736,-27.41366 12.301,-12.301 28.468,-18.97868 16.167,-7.02914 35.8486,-7.02914 13.3554,0 24.2505,4.56894 10.8952,4.56894 18.9787,12.65245 8.0835,7.73206 13.7068,18.27577 z m 23.5476,-33.03696 -25.3049,141.98858 q -0.7029,3.5146 -1.0543,7.0292 -0.3515,3.1631 -0.7029,5.9748 -0.3515,2.4602 -0.3515,4.5689 0,6.3262 2.8117,9.1379 2.8116,2.8116 8.7864,2.8116 7.3806,0 13.7068,-3.1631 6.3262,-3.5145 10.1923,-5.9747 l -2.8117,11.9495 q -3.1631,2.8116 -8.7864,5.9748 -5.6233,2.8116 -12.6525,4.5689 -6.6777,2.1087 -14.4097,2.1087 -11.2466,0 -19.6816,-3.866 -8.0835,-3.866 -12.6525,-11.5981 -4.5689,-8.0835 -4.5689,-19.6816 0,-2.4602 1.0544,-5.6233 1.0543,-3.1631 2.1087,-5.9747 h -2.4602 l 21.4389,-121.2527 4.5689,-1.40583 20.0331,-17.57285 z"
     style="font-style:italic;font-weight:500;font-size:351.457px;font-family:'Roboto Serif';-inkscape-font-specification:'Roboto Serif Medium Italic';fill-rule:nonzero"
     id="path32" /><path
     d="m 2734.1234,933.76471 h 29.1709 l 49.204,-55.5302 0.7029,-3.86603 h -13.3553 l -56.2332,40.76901 15.8156,0.70291 -43.9321,-41.47192 h -10.1923 l -0.7029,3.86603 z m -12.301,207.35959 q -16.8699,0 -31.9826,-4.2174 -15.1126,-4.2175 -26.0078,-9.8408 -10.8952,-5.9748 -15.4641,-10.5437 l 6.6777,-34.4428 h 34.4428 l -7.3806,39.7146 q -2.1088,-1.4058 -3.5146,-2.8116 -1.4058,-1.4059 -2.1087,-3.5146 -0.703,-2.1088 -1.0544,-4.2175 4.5689,5.6233 11.2466,9.4893 7.0291,3.8661 16.167,5.9748 9.1379,2.1087 19.3302,2.1087 13.0039,0 21.7903,-4.2174 8.7864,-4.2175 13.3554,-11.2467 4.5689,-7.0291 4.5689,-16.167 0,-7.0291 -3.1631,-11.9495 -2.8117,-5.2719 -8.435,-9.4894 -5.6233,-4.2174 -13.0039,-8.0835 -7.3806,-3.866 -16.167,-8.0835 -11.5981,-5.2718 -22.8447,-11.9495 -11.2466,-7.0292 -18.6272,-17.2214 -7.3806,-10.5437 -7.3806,-26.0078 0,-16.51851 9.1379,-28.11659 9.1378,-11.59808 24.9534,-17.92431 16.167,-6.67768 37.2544,-6.67768 12.6525,0 24.2506,2.4602 11.5981,2.4602 21.0874,7.02914 9.4893,4.56894 15.4641,9.84079 l -5.6233,31.63115 h -32.6855 l 7.0291,-37.95737 q 3.5146,2.10874 5.9748,4.9204 2.4602,2.81165 3.866,5.97476 1.4059,3.16312 1.7573,7.3806 -5.2718,-7.02914 -11.5981,-11.24662 -6.3262,-4.21749 -13.7068,-5.97477 -7.3806,-1.75729 -16.5185,-1.75729 -17.9243,0 -27.4136,8.08351 -9.1379,7.73206 -9.1379,20.38451 0,9.13787 5.6233,15.46407 5.9748,6.3263 15.1127,11.2467 9.4893,4.5689 20.7359,9.8408 12.6525,5.9747 23.8991,13.0039 11.5981,6.6777 18.6272,16.8699 7.3806,10.1923 7.3806,25.3049 0,17.9243 -9.4893,30.9282 -9.1379,12.6525 -26.3593,19.3302 -16.8699,6.6776 -40.0661,6.6776 z"
     style="font-style:italic;font-weight:500;font-size:351.457px;font-family:'Roboto Serif';-inkscape-font-specification:'Roboto Serif Medium Italic';fill-rule:nonzero"
     id="path33" /><path
     d="m 2837.8032,1105.6272 q 0,-2.4602 0.3515,-5.2719 0.3514,-2.8116 0.7029,-5.9747 0.7029,-3.5146 1.4058,-7.0292 l 18.9787,-105.78854 q 1.0544,-4.56894 -1.4058,-7.02914 -2.1088,-2.81165 -6.6777,-4.56894 -4.569,-1.75728 -11.9496,-2.81165 l -3.866,-0.70292 1.7573,-11.24662 h 68.5341 l -25.6563,144.09741 q -0.3515,2.8116 -0.703,5.2718 -0.3514,2.4602 -0.7029,4.9204 -0.3514,2.4602 -0.3514,4.2175 0,6.3262 2.8116,9.1379 3.1631,2.8116 9.1379,2.8116 4.569,0 9.1379,-1.4058 4.5689,-1.7573 8.435,-3.866 3.866,-2.4602 6.3262,-3.866 l -2.8117,11.9495 q -3.1631,2.8116 -8.7864,5.9748 -5.6233,2.8116 -12.6524,4.5689 -6.6777,2.1087 -14.7612,2.1087 -10.8952,0 -19.3302,-3.866 -8.4349,-3.866 -13.3553,-11.5981 -4.569,-8.0835 -4.569,-20.033 z m 29.1709,-212.28004 q 0,-11.24663 7.3806,-17.2214 7.3806,-6.32622 18.9787,-6.32622 11.2466,0 18.2758,6.32622 7.3806,5.97477 7.3806,17.2214 0,11.24662 -7.3806,17.57285 -7.0292,6.32622 -18.2758,6.32622 -11.5981,0 -18.9787,-6.32622 -7.3806,-6.32623 -7.3806,-17.57285 z"
     style="font-style:italic;font-weight:500;font-size:351.457px;font-family:'Roboto Serif';-inkscape-font-specification:'Roboto Serif Medium Italic';fill-rule:nonzero"
     id="path34" /><path
     d="m 2940.78,1137.6098 h 42.1748 l 21.4389,-122.3071 -1.7573,-2.4602 9.4894,-57.63891 h -65.7225 l -1.7573,11.24662 3.8661,0.70292 q 7.3806,1.05437 11.9495,2.81165 4.5689,1.75729 6.6777,4.21749 2.1087,2.4602 1.0543,7.38059 z m 157.4527,-38.3088 15.4641,-81.1866 q 1.0544,-6.6777 1.7573,-12.6525 0.7029,-5.97473 0.7029,-11.59804 0,-18.62722 -11.2466,-30.2253 -11.2466,-11.94954 -34.0913,-11.94954 -17.2214,0 -30.9282,8.43497 -13.7068,8.43496 -25.3049,25.3049 -11.2467,16.51851 -21.7904,41.47191 l 5.2719,10.1923 q 9.8408,-22.1418 18.6272,-36.903 9.1379,-14.76121 18.2758,-22.14181 9.4893,-7.38059 20.3845,-7.38059 10.8952,0 14.7612,5.97477 4.2175,5.62331 4.2175,14.05828 0,5.27185 -1.0544,11.59805 -0.7029,5.9748 -1.7573,11.9496 l -13.3554,73.103 q -0.7029,3.5146 -1.4058,7.0292 -0.3514,3.5145 -0.7029,6.3262 0,2.4602 0,5.2718 0,11.9496 4.5689,19.6816 4.9204,7.7321 13.0039,11.5981 8.435,3.866 19.3302,3.866 7.732,0 14.4097,-1.7572 7.0292,-1.7573 12.6525,-4.9204 5.6233,-3.1632 9.1379,-5.9748 l 2.8116,-11.9495 q -2.8116,1.4058 -6.6777,3.866 -3.866,2.1087 -8.4349,3.866 -4.2175,1.4058 -8.7865,1.4058 -5.9747,0 -9.1378,-2.4602 -2.8117,-2.8116 -2.8117,-9.1378 0,-1.7573 0.3515,-3.8661 0.3514,-2.4602 0.7029,-5.2718 0.3514,-2.8117 1.0543,-5.6233 z"
     style="font-style:italic;font-weight:500;font-size:351.457px;font-family:'Roboto Serif';-inkscape-font-specification:'Roboto Serif Medium Italic';fill-rule:nonzero"
     id="path35" /><path
     d="m 3286.9654,1068.7242 q 1.7573,-7.7321 3.1631,-15.4641 1.4059,-8.0835 1.7573,-15.4641 0.7029,-7.7321 0.7029,-14.7612 0,-19.3301 -4.5689,-32.33405 -4.5689,-13.35537 -13.3554,-20.03305 -8.7864,-6.67769 -21.0874,-6.67769 -10.1922,0 -18.6272,4.9204 -8.435,4.9204 -15.1127,13.35537 -6.3262,8.08351 -10.8951,18.97872 -4.569,10.8951 -7.3806,22.8447 -2.1088,7.732 -3.1631,15.8155 -1.0544,7.7321 -1.7573,15.4641 -0.7029,7.3806 -0.7029,14.0583 0,19.3301 4.5689,32.6855 4.5689,13.3554 13.3554,20.0331 8.7864,6.3262 21.0874,6.3262 10.1922,0 18.6272,-4.569 8.435,-4.9203 14.7612,-13.0039 6.3262,-8.4349 10.8952,-19.3301 4.5689,-11.2466 7.732,-22.8447 z m -134.9595,-13.7068 q 0,-15.8156 4.569,-30.9282 4.5689,-15.4641 13.0039,-28.46806 8.7864,-13.35536 21.0874,-23.19616 12.6525,-9.84079 28.1166,-15.11265 15.8155,-5.62331 34.0913,-5.62331 25.6564,0 44.2836,10.89517 18.9787,10.54371 29.1709,29.87384 10.5437,19.33017 10.5437,44.98647 0,16.167 -4.5689,31.6312 -4.569,15.1126 -13.3554,28.468 -8.7864,13.0039 -21.4389,22.8447 -12.301,9.8408 -28.1165,15.4641 -15.4641,5.2718 -34.0914,5.2718 -24.9534,0 -43.9321,-10.5437 -18.6272,-10.8951 -29.1709,-30.2253 -10.1923,-19.6816 -10.1923,-45.3379 z"
     style="font-style:italic;font-weight:500;font-size:351.457px;font-family:'Roboto Serif';-inkscape-font-specification:'Roboto Serif Medium Italic';fill-rule:nonzero"
     id="path36" /><path
     d="m 3525.6047,1126.3631 -2.1088,11.2467 h -105.7885 l 2.1087,-11.2467 h 2.1088 q 9.8408,0 17.9243,-2.4602 8.4349,-2.4602 9.8408,-9.1378 l 35.8486,-204.19655 q 0.7029,-4.56894 -2.8117,-6.67768 -3.1631,-2.4602 -9.1379,-3.51457 -5.6233,-1.05437 -11.598,-1.05437 h -2.1088 l 1.7573,-11.24663 h 102.6254 q 27.4137,0 46.3924,7.73206 19.3301,7.38059 29.1709,22.14179 10.1923,14.76119 10.1923,35.49715 0,16.86994 -7.0292,31.27968 -7.0291,14.05828 -20.7359,24.60202 -13.7069,10.5437 -33.7399,16.5184 -19.6816,5.6234 -44.9865,5.6234 h -34.7943 l -15.1126,87.1613 q -0.3515,2.8116 3.5146,4.5689 3.866,1.7573 9.8408,2.4602 6.3262,0.7029 12.3009,0.7029 z m 79.0778,-177.13428 q 0,-16.16702 -5.2719,-26.71073 -4.9204,-10.89517 -15.1126,-15.81557 -10.1923,-5.27185 -25.3049,-5.27185 h -27.4137 l -20.3845,117.03513 h 29.8739 q 16.167,0 28.1165,-5.2718 11.9496,-5.2719 19.6816,-14.7612 8.0835,-9.48934 11.9496,-22.14179 3.866,-12.65245 3.866,-27.06219 z"
     style="font-style:italic;font-weight:500;font-size:351.457px;font-family:'Roboto Serif';-inkscape-font-specification:'Roboto Serif Medium Italic';fill-rule:nonzero"
     id="path37" /><path
     d="m 3792.3604,1068.7242 q 1.7573,-7.7321 3.1632,-15.4641 1.4058,-8.0835 1.7572,-15.4641 0.703,-7.7321 0.703,-14.7612 0,-19.3301 -4.569,-32.33405 -4.5689,-13.35537 -13.3554,-20.03305 -8.7864,-6.67769 -21.0874,-6.67769 -10.1922,0 -18.6272,4.9204 -8.435,4.9204 -15.1126,13.35537 -6.3263,8.08351 -10.8952,18.97872 -4.569,10.8951 -7.3806,22.8447 -2.1088,7.732 -3.1631,15.8155 -1.0544,7.7321 -1.7573,15.4641 -0.7029,7.3806 -0.7029,14.0583 0,19.3301 4.5689,32.6855 4.569,13.3554 13.3554,20.0331 8.7864,6.3262 21.0874,6.3262 10.1923,0 18.6272,-4.569 8.435,-4.9203 14.7612,-13.0039 6.3262,-8.4349 10.8952,-19.3301 4.5689,-11.2466 7.732,-22.8447 z m -134.9594,-13.7068 q 0,-15.8156 4.5689,-30.9282 4.5689,-15.4641 13.0039,-28.46806 8.7864,-13.35536 21.0874,-23.19616 12.6525,-9.84079 28.1166,-15.11265 15.8155,-5.62331 34.0913,-5.62331 25.6564,0 44.2836,10.89517 18.9787,10.54371 29.1709,29.87384 10.5437,19.33017 10.5437,44.98647 0,16.167 -4.5689,31.6312 -4.5689,15.1126 -13.3554,28.468 -8.7864,13.0039 -21.4388,22.8447 -12.301,9.8408 -28.1166,15.4641 -15.4641,5.2718 -34.0913,5.2718 -24.9535,0 -43.9322,-10.5437 -18.6272,-10.8951 -29.1709,-30.2253 -10.1922,-19.6816 -10.1922,-45.3379 z"
     style="font-style:italic;font-weight:500;font-size:351.457px;font-family:'Roboto Serif';-inkscape-font-specification:'Roboto Serif Medium Italic';fill-rule:nonzero"
     id="path38" /><path
     d="m 3907.2871,900.3763 q 1.0543,-4.56894 -1.0544,-7.02914 -2.1088,-2.81166 -6.6777,-4.56894 -4.5689,-1.75729 -11.9495,-2.81166 l -4.2175,-0.70291 2.1087,-11.24663 h 68.5341 l -40.0661,225.28398 q -0.7029,2.8116 -1.0543,5.2718 -0.3515,2.4602 -0.7029,4.9204 0,2.1088 0,4.2175 0,6.3262 2.8116,9.1379 2.8117,2.8116 8.7864,2.8116 4.9204,0 9.1379,-1.4058 4.569,-1.7573 8.435,-3.866 3.866,-2.4602 6.3262,-3.866 l -2.8116,11.9495 q -3.1632,2.8116 -8.7865,5.9748 -5.6233,2.8116 -12.6524,4.5689 -6.6777,2.1087 -14.7612,2.1087 -10.8952,0 -19.3301,-3.866 -8.0836,-3.866 -13.004,-11.5981 -4.5689,-8.0835 -4.5689,-20.033 0,-2.8117 0,-5.2719 0.3515,-2.8116 0.7029,-5.9747 0.7029,-3.5146 1.4058,-7.0292 z"
     style="font-style:italic;font-weight:500;font-size:351.457px;font-family:'Roboto Serif';-inkscape-font-specification:'Roboto Serif Medium Italic';fill-rule:nonzero"
     id="path39" /><path
     d="m 4037.3262,917.24623 q -11.2466,0 -18.6272,-6.32622 -7.3806,-6.32623 -7.3806,-17.57285 0,-11.24663 7.3806,-17.2214 7.3806,-6.32622 18.6272,-6.32622 11.5981,0 18.6272,6.32622 7.3806,5.97477 7.3806,17.2214 0,11.24662 -7.3806,17.57285 -7.0291,6.32622 -18.6272,6.32622 z m -130.0391,296.27827 2.8117,-12.6525 q 4.2174,2.4602 10.5437,4.2175 6.3262,2.1088 14.0583,2.1088 10.5437,0 17.5728,-4.569 7.0291,-4.2175 11.5981,-14.4097 4.9204,-10.1923 7.732,-27.0622 l 31.6312,-179.59454 q 1.0543,-4.56894 -1.0544,-7.38059 -2.1087,-2.81166 -6.6777,-4.21749 -4.5689,-1.75728 -11.9495,-2.81165 l -4.2175,-0.70292 2.1087,-11.24662 h 68.5342 l -34.7943,197.16741 q -4.2175,25.3049 -14.4097,40.0661 -9.8408,15.1126 -24.602,21.4388 -14.7612,6.6777 -34.0913,6.6777 -10.8952,0 -20.0331,-2.1087 -9.1379,-2.1088 -14.7612,-4.9204 z"
     style="font-style:italic;font-weight:500;font-size:351.457px;font-family:'Roboto Serif';-inkscape-font-specification:'Roboto Serif Medium Italic';fill-rule:nonzero"
     id="path40" /><path
     d="m 4154.0098,1141.1243 q -23.5476,0 -41.4719,-9.8408 -17.9243,-9.8408 -28.1166,-28.468 -9.8408,-18.6272 -9.8408,-44.635 0,-21.7903 7.3806,-41.1205 7.7321,-19.33011 21.4389,-33.73985 14.0583,-14.7612 33.3884,-23.19616 19.3301,-8.43497 42.8778,-8.43497 18.2757,0 30.5767,5.62331 12.301,5.62331 18.6272,14.76119 6.6777,8.78643 6.6777,18.97868 0,13.7068 -10.1922,24.2505 -9.8408,10.1923 -27.4137,18.2758 -17.5728,8.0835 -41.1204,15.1127 -23.1962,6.6776 -50.2584,13.7068 l 1.7573,-10.5437 q 24.2505,-6.6777 41.4719,-13.0039 17.5729,-6.3263 28.468,-13.3554 10.8952,-7.3806 15.8156,-16.5185 5.2719,-9.48933 5.2719,-21.79032 0,-6.32623 -2.1088,-11.24663 -2.1087,-5.27185 -7.0291,-8.43497 -4.569,-3.51457 -12.301,-3.51457 -13.0039,0 -24.2506,7.73206 -10.8951,7.38059 -18.9786,21.08742 -7.7321,13.35541 -11.9496,30.92821 -4.2175,17.5729 -4.2175,37.9574 0,21.4388 5.2719,35.4971 5.2719,14.0583 15.1127,21.4389 10.1922,7.0291 23.5476,7.0291 13.3553,0 23.5476,-5.2718 10.5437,-5.6233 18.6272,-15.1127 8.0835,-9.8408 13.7068,-22.4932 l 10.8952,7.3806 q -7.7321,16.8699 -18.9787,28.1165 -10.8951,11.2467 -24.9534,17.2214 -14.0583,5.6233 -31.2797,5.6233 z"
     style="font-style:italic;font-weight:500;font-size:351.457px;font-family:'Roboto Serif';-inkscape-font-specification:'Roboto Serif Medium Italic';fill-rule:nonzero"
     id="path41" /><path
     d="m 4449.2336,1127.4175 q 15.8156,0 29.5224,-5.2718 14.0583,-5.2719 25.6564,-15.1127 11.598,-9.8408 20.3845,-23.1961 8.7864,-13.7069 14.4097,-30.5768 l 12.301,5.9748 q -9.1379,25.3049 -24.602,43.5806 -15.4641,18.2758 -36.5515,28.468 -20.736,9.8408 -46.3923,9.8408 -23.5477,0 -44.2836,-8.0835 -20.736,-8.4349 -36.2001,-23.899 -15.1126,-15.4642 -23.8991,-36.903 -8.4349,-21.4389 -8.4349,-47.7982 0,-23.8991 6.6776,-44.98648 6.6777,-21.08742 18.9787,-38.30881 12.301,-17.57285 29.171,-30.2253 17.2213,-12.65246 38.3088,-19.33014 21.4388,-7.02914 46.0408,-7.02914 15.1127,0 28.1166,3.51457 13.0039,3.16311 23.1962,9.8408 10.5437,6.32622 17.9243,15.46411 7.3806,9.13788 11.598,20.3845 l -7.3806,-3.16311 12.301,-42.5263 h 13.7069 l -12.301,70.64286 h -12.301 q -2.8117,-16.16702 -11.2466,-29.87385 -8.435,-13.70682 -23.1962,-21.79033 -14.4097,-8.43497 -35.1457,-8.43497 -17.5729,0 -32.6855,6.67768 -15.1127,6.67769 -27.0622,19.33014 -11.9495,12.30099 -20.3845,29.87384 -8.435,17.2214 -13.0039,38.66027 -4.2175,21.08746 -4.2175,44.63506 0,21.0874 4.5689,37.6059 4.9204,16.5185 14.0583,28.1165 9.4894,11.5981 22.4933,17.9243 13.3553,5.9748 29.8738,5.9748 z"
     style="font-style:italic;font-weight:500;font-size:351.457px;font-family:'Roboto Serif';-inkscape-font-specification:'Roboto Serif Medium Italic';fill-rule:nonzero"
     id="path42" /><path
     d="m 4588.4105,1019.5202 h 93.839 l -4.9204,26.7108 h -93.839 z"
     style="font-style:italic;font-weight:500;font-size:351.457px;font-family:'Roboto Serif';-inkscape-font-specification:'Roboto Serif Medium Italic';fill-rule:nonzero"
     id="path43" /><path
     d="m 4720.91,955.20359 h 116.6837 l -2.4602,12.30099 h -116.6837 z m 114.9264,-71.34577 q -11.2466,0 -19.3301,4.9204 -7.7321,4.56894 -12.6525,14.76119 -4.5689,9.8408 -7.3806,26.00782 l -47.7981,286.43747 h -35.1457 l 40.0661,-281.51707 q 3.1631,-20.73597 14.4097,-34.79425 11.5981,-14.40973 28.8195,-21.43887 17.2214,-7.02914 37.6059,-7.02914 5.9747,0 11.598,0.70291 5.6234,0.35146 10.8952,1.75728 5.2719,1.40583 10.5437,4.21749 l -3.1631,15.11265 q -5.2718,-4.21748 -12.301,-6.67768 -7.0291,-2.4602 -16.167,-2.4602 z"
     style="font-style:italic;font-weight:500;font-size:351.457px;font-family:'Roboto Serif';-inkscape-font-specification:'Roboto Serif Medium Italic';fill-rule:nonzero"
     id="path44" /><path
     d="m 4993.9915,987.18618 -6.3262,11.24662 q -5.2718,-10.54371 -12.301,-17.57285 -6.6777,-7.3806 -14.7612,-10.89517 -8.0835,-3.86602 -18.6272,-3.86602 -11.9495,0 -21.7903,7.02914 -9.8408,6.67768 -17.5729,18.27576 -7.3806,11.24664 -12.6524,25.65634 -4.9204,14.4098 -7.7321,30.2253 -2.8116,15.4641 -2.8116,30.2253 0,15.8156 3.5145,26.0078 3.5146,9.8408 9.8408,14.7612 6.3263,4.9204 14.4098,4.9204 13.3553,0 23.5476,-9.4893 10.1922,-9.8408 18.6272,-26.0078 8.435,-16.167 16.167,-34.7943 l 9.1379,6.6777 q -10.8952,23.5476 -21.7903,41.8234 -10.8952,18.2758 -24.2506,29.1709 -13.0039,10.5437 -32.334,10.5437 -16.8699,0 -30.9282,-8.0835 -13.7068,-8.4349 -21.7904,-23.899 -8.0835,-15.4642 -8.0835,-37.6059 0,-16.87 4.2175,-34.0914 4.2175,-17.2214 12.301,-32.334 8.435,-15.46413 20.736,-27.41366 12.301,-12.301 28.468,-18.97868 16.167,-7.02914 35.8486,-7.02914 13.3554,0 24.2505,4.56894 10.8952,4.56894 18.9787,12.65245 8.0835,7.73206 13.7068,18.27577 z m 23.5477,-33.03696 -25.3049,141.98858 q -0.703,3.5146 -1.0544,7.0292 -0.3515,3.1631 -0.7029,5.9748 -0.3515,2.4602 -0.3515,4.5689 0,6.3262 2.8117,9.1379 2.8116,2.8116 8.7864,2.8116 7.3806,0 13.7068,-3.1631 6.3262,-3.5145 10.1923,-5.9747 l -2.8117,11.9495 q -3.1631,2.8116 -8.7864,5.9748 -5.6233,2.8116 -12.6525,4.5689 -6.6776,2.1087 -14.4097,2.1087 -11.2466,0 -19.6816,-3.866 -8.0835,-3.866 -12.6524,-11.5981 -4.569,-8.0835 -4.569,-19.6816 0,-2.4602 1.0544,-5.6233 1.0544,-3.1631 2.1087,-5.9747 h -2.4602 l 21.4389,-121.2527 4.5689,-1.40583 20.0331,-17.57285 z"
     style="font-style:italic;font-weight:500;font-size:351.457px;font-family:'Roboto Serif';-inkscape-font-specification:'Roboto Serif Medium Italic';fill-rule:nonzero"
     id="path45" /><path
     d="m 5156.0129,1141.1243 q -8.435,0 -16.5185,-1.7572 -8.0835,-1.4059 -17.5729,-4.9204 -9.1378,-3.8661 -20.7359,-9.8408 -11.2467,-6.3263 -26.0078,-15.8156 L 5091.6962,1087 q 16.5185,8.4349 28.468,12.6524 11.9496,4.2175 21.0875,5.6233 9.4893,1.0544 16.8699,1.0544 8.435,0 16.167,-3.5146 8.0835,-3.5145 13.7069,-11.5981 5.9747,-8.0835 8.4349,-22.8447 l 8.0835,2.4602 q -0.7029,16.87 -3.866,29.8739 -3.1631,13.0039 -9.4893,22.1418 -5.9748,9.1379 -14.7612,13.7068 -8.7865,4.5689 -20.3845,4.5689 z m -103.3284,-3.5145 h -15.8156 l 0.3515,-2.8117 147.6119,-162.37312 -1.7572,15.46411 h -66.074 q -12.6524,0 -21.0874,1.05437 -8.0835,1.05437 -12.6524,3.86603 -4.569,2.81165 -6.3263,8.43501 l -7.3806,20.7359 h -10.8951 l 12.301,-66.77681 h 140.9342 l -2.1087,11.59808 z"
     style="font-style:italic;font-weight:500;font-size:351.457px;font-family:'Roboto Serif';-inkscape-font-specification:'Roboto Serif Medium Italic';fill-rule:nonzero"
     id="path46" /><path
     d="m 5387.6224,987.18618 -6.3262,11.24662 q -5.2719,-10.54371 -12.301,-17.57285 -6.6777,-7.3806 -14.7612,-10.89517 -8.0835,-3.86602 -18.6272,-3.86602 -11.9496,0 -21.7904,7.02914 -9.8408,6.67768 -17.5728,18.27576 -7.3806,11.24664 -12.6525,25.65634 -4.9204,14.4098 -7.732,30.2253 -2.8117,15.4641 -2.8117,30.2253 0,15.8156 3.5146,26.0078 3.5146,9.8408 9.8408,14.7612 6.3262,4.9204 14.4097,4.9204 13.3554,0 23.5476,-9.4893 10.1923,-9.8408 18.6273,-26.0078 8.4349,-16.167 16.167,-34.7943 l 9.1379,6.6777 q -10.8952,23.5476 -21.7904,41.8234 -10.8951,18.2758 -24.2505,29.1709 -13.0039,10.5437 -32.334,10.5437 -16.87,0 -30.9283,-8.0835 -13.7068,-8.4349 -21.7903,-23.899 -8.0835,-15.4642 -8.0835,-37.6059 0,-16.87 4.2175,-34.0914 4.2175,-17.2214 12.301,-32.334 8.4349,-15.46413 20.7359,-27.41366 12.301,-12.301 28.4681,-18.97868 16.167,-7.02914 35.8486,-7.02914 13.3553,0 24.2505,4.56894 10.8952,4.56894 18.9787,12.65245 8.0835,7.73206 13.7068,18.27577 z m 23.5476,-33.03696 -25.3049,141.98858 q -0.7029,3.5146 -1.0544,7.0292 -0.3514,3.1631 -0.7029,5.9748 -0.3514,2.4602 -0.3514,4.5689 0,6.3262 2.8116,9.1379 2.8117,2.8116 8.7865,2.8116 7.3806,0 13.7068,-3.1631 6.3262,-3.5145 10.1922,-5.9747 l -2.8116,11.9495 q -3.1631,2.8116 -8.7865,5.9748 -5.6233,2.8116 -12.6524,4.5689 -6.6777,2.1087 -14.4097,2.1087 -11.2467,0 -19.6816,-3.866 -8.0835,-3.866 -12.6525,-11.5981 -4.5689,-8.0835 -4.5689,-19.6816 0,-2.4602 1.0543,-5.6233 1.0544,-3.1631 2.1088,-5.9747 h -2.4602 l 21.4389,-121.2527 4.5689,-1.40583 20.0331,-17.57285 z"
     style="font-style:italic;font-weight:500;font-size:351.457px;font-family:'Roboto Serif';-inkscape-font-specification:'Roboto Serif Medium Italic';fill-rule:nonzero"
     id="path47" /></g><g
   id="g5"
   transform="translate(96.795913,24.088262)"
   style="display:none"><text
     xml:space="preserve"
     style="font-size:702.915px;line-height:24.3%;font-family:Courgette;-inkscape-font-specification:Courgette;text-align:end;text-anchor:end;opacity:1;fill:#00763a;fill-opacity:1;stroke-width:420.22;stroke-linecap:square;paint-order:markers fill stroke"
     x="8619.2363"
     y="742.5097"
     id="text1"><tspan
       sodipodi:role="line"
       id="tspan1"
       style="font-style:normal;font-variant:normal;font-weight:bold;font-stretch:normal;font-size:702.915px;font-family:Roboto;-inkscape-font-specification:'Roboto Bold';fill:#00763a;fill-opacity:1;stroke-width:420.221"
       x="8619.2363"
       y="742.5097">BOSANSKA DŽAMIJA</tspan></text><text
     xml:space="preserve"
     style="font-style:normal;font-variant:normal;font-weight:bold;font-stretch:normal;font-size:702.916px;line-height:24.3%;font-family:Roboto;-inkscape-font-specification:'Roboto Bold';text-align:end;text-anchor:end;opacity:0.9;fill:#af9b6f;fill-opacity:1;stroke-width:420.22;stroke-linecap:square;paint-order:markers fill stroke"
     x="6211.2642"
     y="1188.1641"
     id="text2"><tspan
       sodipodi:role="line"
       style="font-style:italic;font-variant:normal;font-weight:bold;font-stretch:normal;font-size:351.457px;font-family:'Noto Serif';-inkscape-font-specification:'Noto Serif Bold Italic';fill:#af9b6f;fill-opacity:1;stroke-width:420.221"
       x="6211.2642"
       y="1188.1641"
       id="tspan4">Džemat Alipašino C-faza</tspan><tspan
       sodipodi:role="line"
       style="font-style:italic;font-variant:normal;font-weight:normal;font-stretch:normal;font-family:'Noto Serif';-inkscape-font-specification:'Noto Serif Italic';fill:#af9b6f;fill-opacity:1;stroke-width:420.221"
       x="6211.2642"
       y="1434.433"
       id="tspan5" /></text></g><g
   id="g9"
   transform="translate(96.795913,24.088262)"><g
     aria-label="BOSANSKA DŽAMIJA"
     id="text6"
     style="font-size:702.915px;line-height:24.3%;font-family:Courgette;-inkscape-font-specification:Courgette;text-align:end;text-anchor:end;opacity:1;fill:#00763a;stroke-width:420.22;stroke-linecap:square;paint-order:markers fill stroke"><path
       d="M 1771.3068,742.5097 V 242.78109 h 175.0423 q 90.9534,0 137.9745,35.00846 47.0212,34.66524 47.0212,101.9364 0,36.72456 -18.8771,64.86862 -18.8771,27.80083 -52.5127,40.8432 38.4407,9.61017 60.4068,38.78388 22.3093,29.17372 22.3093,71.38981 0,72.07624 -45.9915,109.14402 -45.9915,37.06778 -131.1101,37.75422 z m 102.9661,-217.6016 v 134.88554 h 88.2076 q 36.3813,0 56.6313,-17.16101 20.5932,-17.50424 20.5932,-48.05083 0,-68.64404 -71.0466,-69.6737 z m 0,-72.76269 h 76.1949 q 77.9109,-1.37288 77.9109,-62.12286 0,-33.9788 -19.9067,-48.73726 -19.5636,-15.10169 -62.1229,-15.10169 h -72.0762 z"
       style="font-weight:bold;font-family:Roboto;-inkscape-font-specification:'Roboto Bold';stroke-width:420.221"
       id="path69" /><path
       d="m 2630.387,503.97166 q 0,73.79235 -26.0847,129.39402 -26.0848,55.60167 -74.8221,85.80505 -48.394,30.20338 -111.2033,30.20338 -62.1229,0 -110.8601,-29.86016 -48.7373,-29.86016 -75.5085,-85.11861 -26.7711,-55.60167 -27.1144,-127.67792 v -24.71185 q 0,-73.79234 26.428,-129.73724 26.7712,-56.28811 75.1652,-86.14827 48.7373,-30.20338 111.2034,-30.20338 62.466,0 110.8601,30.20338 48.7373,29.86016 75.1652,86.14827 26.7712,55.9449 26.7712,129.39402 z m -104.339,-22.65253 q 0,-78.59743 -28.144,-119.44063 -28.1441,-40.84321 -80.3135,-40.84321 -51.8263,0 -79.9703,40.49999 -28.1441,40.15676 -28.4873,118.06775 v 24.36863 q 0,76.53811 28.144,118.75419 28.1441,42.21609 81,42.21609 51.8263,0 79.6271,-40.49999 27.8008,-40.8432 28.144,-118.75419 z"
       style="font-weight:bold;font-family:Roboto;-inkscape-font-specification:'Roboto Bold';stroke-width:420.221"
       id="path70" /><path
       d="m 2964.3402,611.39959 q 0,-29.17372 -20.5932,-44.61863 -20.5932,-15.78813 -74.1355,-32.94914 -53.5424,-17.50423 -84.7754,-34.32202 -85.1186,-45.99151 -85.1186,-123.90249 0,-40.49999 22.6525,-72.07625 22.9957,-31.91948 65.555,-49.76693 42.9026,-17.84745 96.1017,-17.84745 53.5424,0 95.4152,19.56355 41.8729,19.22034 64.8686,54.57202 23.339,35.35168 23.339,80.31353 h -102.966 q 0,-34.32203 -21.6229,-53.19914 -21.6229,-19.22033 -60.75,-19.22033 -37.7542,0 -58.6907,16.13135 -20.9364,15.78813 -20.9364,41.87287 0,24.36863 24.3686,40.8432 24.7119,16.47457 72.4195,30.88982 87.8644,26.42795 128.0211,65.55506 40.1568,39.1271 40.1568,97.47454 0,64.86861 -49.0805,101.9364 -49.0805,36.72456 -132.1398,36.72456 -57.661,0 -105.0253,-20.93643 -47.3644,-21.27966 -72.4195,-58.00422 -24.7119,-36.72456 -24.7119,-85.11861 h 103.3093 q 0,82.71607 98.8474,82.71607 36.7246,0 57.3178,-14.75847 20.5932,-15.10169 20.5932,-41.87286 z"
       style="font-weight:bold;font-family:Roboto;-inkscape-font-specification:'Roboto Bold';stroke-width:420.221"
       id="path71" /><path
       d="m 3419.4502,639.54364 h -180.5338 l -34.3221,102.96606 h -109.4872 l 186.0253,-499.72861 h 95.4153 l 187.055,499.72861 h -109.4873 z m -152.733,-83.40251 h 124.9321 L 3328.84,369.08612 Z"
       style="font-weight:bold;font-family:Roboto;-inkscape-font-specification:'Roboto Bold';stroke-width:420.221"
       id="path72" /><path
       d="m 4016.6534,742.5097 h -102.966 L 3713.2468,413.70475 V 742.5097 H 3610.2807 V 242.78109 h 102.9661 l 200.7838,329.49139 V 242.78109 h 102.6228 z"
       style="font-weight:bold;font-family:Roboto;-inkscape-font-specification:'Roboto Bold';stroke-width:420.221"
       id="path73" /><path
       d="m 4365.7083,611.39959 q 0,-29.17372 -20.5932,-44.61863 -20.5932,-15.78813 -74.1355,-32.94914 -53.5424,-17.50423 -84.7754,-34.32202 -85.1186,-45.99151 -85.1186,-123.90249 0,-40.49999 22.6525,-72.07625 22.9957,-31.91948 65.555,-49.76693 42.9026,-17.84745 96.1017,-17.84745 53.5424,0 95.4152,19.56355 41.8729,19.22034 64.8686,54.57202 23.339,35.35168 23.339,80.31353 h -102.966 q 0,-34.32203 -21.6229,-53.19914 -21.6229,-19.22033 -60.75,-19.22033 -37.7542,0 -58.6907,16.13135 -20.9364,15.78813 -20.9364,41.87287 0,24.36863 24.3687,40.8432 24.7118,16.47457 72.4194,30.88982 87.8644,26.42795 128.0212,65.55506 40.1567,39.1271 40.1567,97.47454 0,64.86861 -49.0805,101.9364 -49.0805,36.72456 -132.1398,36.72456 -57.6609,0 -105.0253,-20.93643 -47.3644,-21.27966 -72.4195,-58.00422 -24.7119,-36.72456 -24.7119,-85.11861 h 103.3093 q 0,82.71607 98.8474,82.71607 36.7246,0 57.3178,-14.75847 20.5932,-15.10169 20.5932,-41.87286 z"
       style="font-weight:bold;font-family:Roboto;-inkscape-font-specification:'Roboto Bold';stroke-width:420.221"
       id="path74" /><path
       d="m 4695.1998,542.06911 -53.5424,57.66099 V 742.5097 H 4538.6913 V 242.78109 h 102.9661 v 226.52533 l 45.3051,-62.12285 127.3347,-164.40248 h 126.6482 l -177.4448,222.06347 182.5931,277.66514 h -122.5296 z"
       style="font-weight:bold;font-family:Roboto;-inkscape-font-specification:'Roboto Bold';stroke-width:420.221"
       id="path75" /><path
       d="m 5267.0046,639.54364 h -180.5338 l -34.322,102.96606 h -109.4873 l 186.0254,-499.72861 h 95.4152 l 187.055,499.72861 h -109.4872 z m -152.733,-83.40251 h 124.9322 l -62.8093,-187.05501 z"
       style="font-weight:bold;font-family:Roboto;-inkscape-font-specification:'Roboto Bold';stroke-width:420.221"
       id="path76" /><path
       d="M 5632.8774,742.5097 V 242.78109 H 5786.64 q 65.8983,0 117.7246,29.86016 52.1694,29.51693 81.3431,84.43217 29.1738,54.57201 29.1738,124.24571 v 22.99575 q 0,69.6737 -28.8305,123.9025 -28.4873,54.22879 -80.6568,84.08895 -52.1695,29.86015 -117.7245,30.20337 z m 102.966,-416.3261 v 333.61004 h 49.767 q 60.4067,0 92.3262,-39.47033 31.9195,-39.47032 32.6059,-112.91945 v -26.42795 q 0,-76.19489 -31.5762,-115.32199 Q 5847.39,326.1836 5786.64,326.1836 Z"
       style="font-weight:bold;font-family:Roboto;-inkscape-font-specification:'Roboto Bold';stroke-width:420.221"
       id="path77" /><path
       d="m 6190.9533,659.79364 h 251.9236 V 742.5097 H 6062.2457 V 682.10295 L 6309.3643,326.1836 h -246.7754 v -83.40251 h 374.7965 v 59.03387 z m 62.1228,-502.13116 50.1102,-49.08049 h 84.7754 v 3.77542 l -103.6525,96.44488 h -62.8093 l -103.6525,-97.13132 v -3.08898 h 84.7754 z"
       style="font-weight:bold;font-family:Roboto;-inkscape-font-specification:'Roboto Bold';stroke-width:420.221"
       id="path78" /><path
       d="m 6794.3342,639.54364 h -180.5338 l -34.322,102.96606 h -109.4873 l 186.0254,-499.72861 h 95.4152 l 187.055,499.72861 h -109.4872 z m -152.733,-83.40251 h 124.9322 l -62.8093,-187.05501 z"
       style="font-weight:bold;font-family:Roboto;-inkscape-font-specification:'Roboto Bold';stroke-width:420.221"
       id="path79" /><path
       d="m 7119.707,242.78109 128.3644,362.44053 127.6779,-362.44053 h 135.2288 V 742.5097 H 7407.6688 V 605.90806 l 10.2966,-235.79228 -134.8855,372.39392 h -70.7034 L 7077.8342,370.459 7088.1308,605.90806 V 742.5097 H 6985.1647 V 242.78109 Z"
       style="font-weight:bold;font-family:Roboto;-inkscape-font-specification:'Roboto Bold';stroke-width:420.221"
       id="path80" /><path
       d="M 7710.3893,742.5097 H 7607.4232 V 242.78109 h 102.9661 z"
       style="font-weight:bold;font-family:Roboto;-inkscape-font-specification:'Roboto Bold';stroke-width:420.221"
       id="path81" /><path
       d="m 8007.2746,242.78109 h 102.9661 v 345.96596 q 0,47.70761 -21.2797,84.43217 -20.9364,36.38134 -59.3771,56.28812 -38.4406,19.90677 -86.8347,19.90677 -79.2838,0 -123.5592,-40.15677 -44.2754,-40.49998 -44.2754,-114.29232 h 103.6525 q 0,36.72456 15.4449,54.22879 15.4449,17.50423 48.7372,17.50423 29.517,0 47.0212,-20.24999 17.5042,-20.24999 17.5042,-57.661 z"
       style="font-weight:bold;font-family:Roboto;-inkscape-font-specification:'Roboto Bold';stroke-width:420.221"
       id="path82" /><path
       d="m 8473.0246,639.54364 h -180.5338 l -34.322,102.96606 h -109.4872 l 186.0253,-499.72861 h 95.4152 l 187.055,499.72861 h -109.4872 z m -152.7329,-83.40251 h 124.9321 l -62.8093,-187.05501 z"
       style="font-weight:bold;font-family:Roboto;-inkscape-font-specification:'Roboto Bold';stroke-width:420.221"
       id="path83" /></g><g
     aria-label="Džemat Alipašino C-faza
"
     id="text9"
     style="font-weight:bold;font-size:702.916px;line-height:24.3%;font-family:Roboto;-inkscape-font-specification:'Roboto Bold';text-align:end;text-anchor:end;opacity:1;fill:#af9b6f;stroke-width:420.22;stroke-linecap:square;paint-order:markers fill stroke"><path
       d="m 1771.3068,1188.1641 3.866,-18.6273 h 4.9204 q 10.8952,0 20.0331,-3.5145 9.4893,-3.8661 12.301,-17.5729 l 36.5515,-172.56537 q 1.4058,-4.92039 1.4058,-8.08351 0,-7.73205 -7.3806,-9.84079 -7.0291,-2.10874 -17.9243,-2.10874 h -4.5689 l 3.866,-18.62723 h 112.4662 q 50.2584,0 78.375,24.60199 28.1165,24.25054 28.1165,70.99435 0,31.2796 -9.8408,59.3962 -9.4893,28.1166 -28.468,49.9069 -18.9787,21.4389 -46.7438,33.7399 -27.4136,12.301 -63.2622,12.301 z m 92.7846,-21.7904 h 15.8156 q 32.6855,0 55.8817,-17.2214 23.5476,-17.5728 35.8486,-48.1496 12.6524,-30.9282 12.6524,-70.9943 0,-36.90297 -16.8699,-54.12437 -16.5185,-17.22139 -44.635,-17.22139 h -14.7612 z"
       style="font-style:italic;font-size:351.457px;font-family:'Noto Serif';-inkscape-font-specification:'Noto Serif Bold Italic';stroke-width:420.221"
       id="path48" /><path
       d="m 2049.6606,1188.1641 3.866,-17.9243 117.3867,-146.5576 h -44.6351 q -14.0582,0 -20.3845,8.7864 -6.3262,8.7864 -13.0039,22.8447 l -0.7029,1.4058 h -21.4389 l 15.4641,-56.93599 h 150.7751 l -3.866,18.27579 -117.7381,146.2061 h 56.936 q 8.0835,0 13.7068,-4.569 5.6233,-4.9204 9.4894,-11.9495 3.866,-7.3806 7.0291,-15.1126 l 3.5146,-8.0836 h 20.3845 l -15.1127,63.6138 z m 90.6759,-212.98298 q -3.1631,-7.02914 -8.0835,-16.51848 -4.9204,-9.84079 -10.1922,-18.97868 -5.2719,-9.48934 -9.1379,-16.16702 l 1.0543,-4.56894 h 22.1418 q 5.9748,5.62331 15.4641,15.11265 9.4894,9.48934 15.8156,16.51848 6.3262,-4.9204 14.4097,-10.54371 8.0836,-5.97477 15.8156,-11.59808 7.7321,-5.62331 13.7068,-9.48934 h 27.4137 l -1.0544,4.56894 q -7.0291,6.67768 -16.167,15.81557 -8.7864,8.78642 -17.9243,18.27576 -9.1379,9.13788 -15.8156,17.57285 z"
       style="font-style:italic;font-size:351.457px;font-family:'Noto Serif';-inkscape-font-specification:'Noto Serif Bold Italic';stroke-width:420.221"
       id="path49" /><path
       d="m 2338.207,1191.6786 q -21.4389,0 -39.3632,-7.732 -17.5728,-8.0835 -28.468,-24.2506 -10.5437,-16.167 -10.5437,-40.769 0,-19.6816 7.732,-41.1204 7.7321,-21.4389 22.8447,-39.7147 15.1127,-18.6272 37.2545,-30.2253 22.1418,-11.59806 51.3127,-11.59806 24.9535,0 39.0117,10.89516 14.0583,10.8952 14.0583,30.5768 0,18.9786 -13.7068,35.1457 -13.3554,16.167 -37.2545,26.3592 -23.5476,9.8408 -53.7729,9.8408 h -13.0039 q -0.3514,3.5146 -0.7029,7.0292 0,3.5145 0,6.3262 0,20.3845 9.4893,31.6311 9.4894,10.8952 28.8195,10.8952 17.2214,0 30.5768,-8.7864 13.3553,-9.1379 20.7359,-19.6816 4.569,5.6233 4.569,15.1126 0,8.435 -7.3806,17.9243 -7.3806,9.1379 -22.8447,15.8156 -15.1127,6.3262 -39.3632,6.3262 z m -21.4389,-102.6254 h 3.1631 q 17.2214,0 31.2797,-5.9748 14.0583,-5.9747 22.1418,-16.8699 8.0835,-11.2466 8.0835,-26.0078 0,-10.8952 -4.5689,-16.87 -4.569,-5.9747 -12.6525,-5.9747 -11.5981,0 -21.4389,10.8951 -9.4893,10.8952 -16.5184,27.4137 -6.6777,16.5185 -9.4894,33.3884 z"
       style="font-style:italic;font-size:351.457px;font-family:'Noto Serif';-inkscape-font-specification:'Noto Serif Bold Italic';stroke-width:420.221"
       id="path50" /><path
       d="m 2714.9689,1190.6243 q -20.0331,0 -30.9282,-9.4894 -10.8952,-9.8408 -10.8952,-26.7107 0,-7.3806 1.4058,-17.9243 1.4059,-10.5437 4.2175,-23.8991 l 5.9748,-27.7651 q 1.4058,-7.0291 3.866,-18.6272 2.4602,-11.9496 2.4602,-20.736 0,-6.6777 -2.8116,-13.3553 -2.4602,-6.6777 -11.2467,-6.6777 -8.4349,0 -16.8699,8.4349 -8.0835,8.0836 -15.4641,20.736 -7.0292,12.6525 -12.301,26.0078 -4.9204,13.3554 -6.6777,23.5476 l -2.8117,14.7612 q -1.4058,7.3806 -3.5145,20.3845 -1.7573,13.0039 -3.5146,26.7108 -1.4058,13.3553 -2.1087,22.1418 h -54.4759 q 0.7029,-9.1379 2.8117,-23.5477 2.1087,-14.4097 4.5689,-29.1709 2.8117,-14.7612 5.2719,-25.6563 l 5.2718,-24.602 q 3.1632,-15.1127 4.569,-24.602 1.4058,-9.8408 1.4058,-14.7612 0,-6.3262 -2.1087,-12.6525 -1.7573,-6.6777 -9.4894,-6.6777 -8.7864,0 -17.2214,7.7321 -8.4349,7.3806 -15.8155,19.3301 -7.0292,11.5981 -12.301,24.2506 -4.9204,12.301 -7.0292,22.1418 l -19.6816,88.2157 h -52.7185 l 29.5224,-139.8799 q 0.7029,-3.1631 1.4058,-7.7321 1.0544,-4.9204 1.0544,-7.3806 0,-9.4893 -4.2175,-11.9495 -4.2175,-2.8117 -14.4097,-2.8117 h -6.3263 l 3.1631,-18.62719 h 81.5381 l -6.6777,35.84859 h 2.4602 q 14.0583,-21.4389 29.5224,-30.2253 15.8155,-9.13786 36.5515,-9.13786 21.4389,0 29.5224,11.24666 8.435,11.2466 9.1379,27.7651 v 2.1087 h 2.1087 q 13.0039,-21.0874 28.468,-31.6311 15.8156,-10.54373 38.3088,-10.54373 21.7904,0 30.2253,12.30103 8.435,11.9495 8.435,28.1165 0,9.1379 -2.4602,20.0331 -2.1087,10.5437 -3.866,19.6816 l -8.0835,37.6059 q -2.1088,9.4893 -3.5146,17.9243 -1.4058,8.4349 -1.4058,15.8155 0,15.8156 12.301,15.8156 5.6233,0 10.1922,-2.1087 4.569,-2.1088 10.5437,-5.9748 l 8.435,11.9495 q -8.435,9.1379 -21.4389,16.87 -13.0039,7.3806 -32.334,7.3806 z"
       style="font-style:italic;font-size:351.457px;font-family:'Noto Serif';-inkscape-font-specification:'Noto Serif Bold Italic';stroke-width:420.221"
       id="path51" /><path
       d="m 2838.6817,1191.6786 q -16.5185,0 -27.7651,-8.4349 -11.2466,-8.435 -16.87,-22.8447 -5.6233,-14.7612 -5.6233,-33.037 0,-16.5185 4.569,-34.4428 4.5689,-18.2757 13.7068,-35.1457 9.1379,-17.2214 22.4932,-30.9282 13.3554,-14.0583 30.5768,-22.1418 17.5729,-8.43496 39.0117,-8.43496 13.7069,0 27.4137,3.86606 14.0583,3.866 22.1418,8.4349 l 18.6272,-8.4349 h 18.6272 l -23.1962,109.6546 q -1.0543,3.866 -2.4602,10.8951 -1.4058,7.0292 -2.4602,14.4098 -1.0543,7.0291 -1.0543,11.598 0,8.7865 3.1631,13.0039 3.5146,4.2175 9.1379,4.2175 4.9204,0 9.4893,-2.1087 4.569,-2.1088 10.1923,-5.2719 l 7.732,14.0583 q -8.7864,7.0292 -22.8447,14.0583 -13.7068,7.0291 -32.6855,7.0291 -15.4641,0 -24.9534,-7.0291 -9.4894,-7.3806 -9.4894,-21.0874 0,-10.1923 2.4602,-22.8447 h -2.4602 q -8.7864,16.5184 -17.9243,27.7651 -8.7864,11.2466 -20.7359,17.2214 -11.5981,5.9747 -28.8195,5.9747 z m 22.1418,-28.1165 q 7.732,0 15.8155,-6.3263 8.0835,-6.6776 15.4641,-17.5728 7.3806,-11.2466 13.004,-24.9535 5.9747,-13.7068 8.7864,-27.7651 l 12.301,-58.3418 q -3.5146,-4.9204 -9.4894,-7.3806 -5.9747,-2.4602 -13.0039,-2.4602 -12.301,0 -22.1418,7.3806 -9.8408,7.3806 -17.2214,19.6816 -7.3806,12.301 -12.6524,26.7107 -4.9204,14.4097 -7.3806,29.1709 -2.4602,14.4098 -2.4602,26.0079 0,20.3845 5.2719,28.1165 5.6233,7.7321 13.7068,7.7321 z"
       style="font-style:italic;font-size:351.457px;font-family:'Noto Serif';-inkscape-font-specification:'Noto Serif Bold Italic';stroke-width:420.221"
       id="path52" /><path
       d="m 3077.3213,1191.6786 q -19.3301,0 -32.6855,-10.1922 -13.0039,-10.1923 -13.0039,-30.9282 0,-6.3263 1.0544,-14.4098 1.0544,-8.4349 2.4602,-15.1126 l 21.0874,-97.3536 h -27.0622 l 3.866,-17.9243 q 15.1127,0 34.7943,-10.89519 19.6816,-11.24662 36.2001,-38.30881 h 20.3845 l -9.1379,43.22921 h 42.5263 l -4.9204,23.89909 h -42.8778 l -21.0874,96.2992 q -1.7573,7.7321 -2.8117,14.0583 -0.7029,6.3262 -0.7029,11.2466 0,8.7864 4.9204,13.3554 4.9204,4.2175 12.6525,4.2175 8.0835,0 14.7612,-2.8117 7.0291,-2.8117 12.6524,-6.3262 l 8.0835,13.3553 q -11.598,9.8408 -26.3592,17.2214 -14.4098,7.3806 -34.7943,7.3806 z"
       style="font-style:italic;font-size:351.457px;font-family:'Noto Serif';-inkscape-font-specification:'Noto Serif Bold Italic';stroke-width:420.221"
       id="path53" /><path
       d="m 3228.7993,1188.1641 3.866,-18.6273 h 7.3806 q 6.6777,0 10.8952,-2.1087 4.5689,-2.4602 9.1379,-8.435 4.9204,-5.9747 11.2466,-16.8699 l 119.1439,-204.89944 h 48.1496 l 29.5224,207.00814 q 1.4058,10.8952 5.9748,18.2758 4.5689,7.0291 15.4641,7.0291 h 6.3262 l -3.866,18.6273 h -115.9808 l 3.866,-18.6273 h 8.0835 q 11.2466,0 17.9243,-3.5145 6.6777,-3.5146 6.6777,-11.2467 0,-2.8116 -0.3514,-5.6233 0,-3.1631 -0.3515,-5.6233 l -4.5689,-37.9573 h -85.7556 l -17.5728,31.6311 q -6.6777,12.301 -6.6777,19.6816 0,12.6524 19.6816,12.6524 h 7.0291 l -3.866,18.6273 z m 139.177,-166.2392 -34.4428,62.2079 h 71.3458 l -7.0292,-59.0448 q -1.4058,-15.4641 -2.8116,-27.41363 -1.4059,-12.301 -1.7573,-24.95345 -3.5146,8.43497 -7.0292,15.46411 -3.5145,7.02914 -8.0835,15.11267 -4.2175,7.732 -10.1922,18.6272 z"
       style="font-style:italic;font-size:351.457px;font-family:'Noto Serif';-inkscape-font-specification:'Noto Serif Bold Italic';stroke-width:420.221"
       id="path54" /><path
       d="m 3570.0641,1191.6786 q -20.033,0 -30.9282,-9.4893 -10.8951,-9.8408 -10.8951,-26.7107 0,-7.3806 1.4058,-17.9243 1.4058,-10.5438 4.2175,-23.8991 l 30.5767,-144.09739 q 1.0544,-4.56894 1.7573,-9.13788 0.7029,-4.56894 0.7029,-5.97477 0,-9.48934 -4.2175,-11.94954 -4.2174,-2.81166 -14.4097,-2.81166 h -7.3806 l 3.1631,-18.62722 h 85.0526 l -41.8234,192.94986 q -2.1087,9.4894 -3.5145,17.9243 -1.4059,8.435 -1.4059,15.8156 0,15.8156 12.301,15.8156 5.6233,0 10.1923,-2.1088 4.5689,-2.1087 10.5437,-5.9747 l 8.435,11.9495 q -8.435,8.7864 -21.4389,16.5185 -13.0039,7.732 -32.3341,7.732 z"
       style="font-style:italic;font-size:351.457px;font-family:'Noto Serif';-inkscape-font-specification:'Noto Serif Bold Italic';stroke-width:420.221"
       id="path55" /><path
       d="m 3717.3246,968.15198 q -11.5981,0 -19.6816,-5.27185 -7.732,-5.27186 -7.732,-16.51848 0,-15.46411 9.8408,-22.1418 9.8408,-6.67768 22.8447,-6.67768 11.2466,0 19.6816,5.27186 8.4349,4.92039 8.4349,16.86993 0,14.40974 -10.5437,21.43888 -10.1922,7.02914 -22.8447,7.02914 z m -17.2214,223.52662 q -20.033,0 -30.9282,-9.4893 -10.8952,-9.8408 -10.8952,-26.7107 0,-7.3806 1.4059,-17.9243 1.4058,-10.5438 4.2175,-23.8991 l 13.7068,-65.371 q 1.0543,-4.569 1.7573,-9.1379 0.7029,-4.5689 0.7029,-5.9748 0,-9.4893 -4.2175,-11.9495 -4.2175,-2.8117 -14.4097,-2.8117 h -6.3263 l 3.5146,-18.62719 h 82.9439 l -24.2506,114.22349 q -2.1087,9.4894 -3.5146,17.9243 -1.4058,8.435 -1.4058,15.8156 0,15.8156 12.301,15.8156 5.6233,0 10.1923,-2.1088 4.5689,-2.1087 10.5437,-5.9747 l 8.4349,11.9495 q -8.4349,8.7864 -21.4388,16.5185 -13.0039,7.732 -32.3341,7.732 z"
       style="font-style:italic;font-size:351.457px;font-family:'Noto Serif';-inkscape-font-specification:'Noto Serif Bold Italic';stroke-width:420.221"
       id="path56" /><path
       d="m 3748.9559,1272.5137 47.7981,-224.2295 q 1.0544,-4.569 1.7573,-9.1379 0.7029,-4.5689 0.7029,-5.9748 0,-9.4893 -4.5689,-11.9495 -4.2175,-2.8117 -14.0583,-2.8117 h -6.3262 l 3.1631,-18.62719 h 75.5632 l -9.1378,46.74379 h 2.4602 q 8.0835,-14.7612 16.8699,-26.0078 8.7864,-11.5981 20.736,-17.9243 11.9495,-6.32626 29.1709,-6.32626 23.1961,0 37.2544,16.51846 14.0583,16.167 14.0583,47.0953 0,15.1126 -4.5689,33.0369 -4.2175,17.5729 -13.0039,35.1457 -8.435,17.5729 -21.4389,31.9826 -13.0039,14.4097 -30.5768,23.1962 -17.5728,8.4349 -39.3632,8.4349 -10.5437,0 -20.033,-2.1087 -9.1379,-2.1088 -15.8156,-5.9748 0,0 -0.7029,5.2719 -0.7029,5.6233 -2.1087,11.5981 l -4.9204,23.5476 q -1.0544,4.5689 -1.7573,9.1379 -0.7029,4.5689 -0.7029,5.9747 0,9.4894 4.2175,11.9496 4.2174,2.8116 14.4097,2.8116 h 13.3554 l -3.1632,18.6272 z m 102.6254,-103.3283 q 14.0583,0 25.3049,-10.8952 11.2466,-10.8951 18.6272,-27.4136 7.7321,-16.87 11.5981,-35.1457 4.2175,-18.6272 4.2175,-33.3884 0,-9.4894 -1.7573,-17.9244 -1.7573,-8.7864 -5.9748,-14.4097 -3.866,-5.6233 -11.2466,-5.6233 -8.7864,0 -17.2214,7.3806 -8.4349,7.0291 -15.8155,18.2758 -7.0292,10.8951 -12.301,23.5476 -4.9204,12.301 -7.0292,22.8447 l -13.3553,62.9108 q 3.1631,3.1631 9.8408,6.6777 7.0291,3.1631 15.1126,3.1631 z"
       style="font-style:italic;font-size:351.457px;font-family:'Noto Serif';-inkscape-font-specification:'Noto Serif Bold Italic';stroke-width:420.221"
       id="path57" /><path
       d="m 4042.7735,1191.6786 q -16.5185,0 -27.7651,-8.4349 -11.2466,-8.435 -16.87,-22.8447 -5.6233,-14.7612 -5.6233,-33.037 0,-16.5185 4.569,-34.4428 4.5689,-18.2757 13.7068,-35.1457 9.1379,-17.2214 22.4932,-30.9282 13.3554,-14.0583 30.5768,-22.1418 17.5728,-8.43496 39.0117,-8.43496 13.7068,0 27.4137,3.86606 14.0583,3.866 22.1418,8.4349 l 18.6272,-8.4349 h 18.6272 l -23.1962,109.6546 q -1.0543,3.866 -2.4602,10.8951 -1.4058,7.0292 -2.4602,14.4098 -1.0543,7.0291 -1.0543,11.598 0,8.7865 3.1631,13.0039 3.5146,4.2175 9.1379,4.2175 4.9204,0 9.4893,-2.1087 4.5689,-2.1088 10.1923,-5.2719 l 7.732,14.0583 q -8.7864,7.0292 -22.8447,14.0583 -13.7068,7.0291 -32.6855,7.0291 -15.4641,0 -24.9534,-7.0291 -9.4894,-7.3806 -9.4894,-21.0874 0,-10.1923 2.4602,-22.8447 h -2.4602 q -8.7864,16.5184 -17.9243,27.7651 -8.7864,11.2466 -20.7359,17.2214 -11.5981,5.9747 -28.8195,5.9747 z m 22.1418,-28.1165 q 7.732,0 15.8155,-6.3263 8.0835,-6.6776 15.4641,-17.5728 7.3806,-11.2466 13.004,-24.9535 5.9747,-13.7068 8.7864,-27.7651 l 12.301,-58.3418 q -3.5146,-4.9204 -9.4894,-7.3806 -5.9747,-2.4602 -13.0039,-2.4602 -12.301,0 -22.1418,7.3806 -9.8408,7.3806 -17.2214,19.6816 -7.3806,12.301 -12.6524,26.7107 -4.9204,14.4097 -7.3806,29.1709 -2.4602,14.4098 -2.4602,26.0079 0,20.3845 5.2718,28.1165 5.6234,7.7321 13.7069,7.7321 z"
       style="font-style:italic;font-size:351.457px;font-family:'Noto Serif';-inkscape-font-specification:'Noto Serif Bold Italic';stroke-width:420.221"
       id="path58" /><path
       d="m 4284.5762,1191.6786 q -30.2253,0 -48.501,-10.1922 -17.9243,-10.1923 -17.9243,-28.468 0,-10.8952 5.2718,-17.2214 5.6233,-6.6777 14.4097,-9.4894 8.7865,-3.1631 17.9244,-3.1631 0,12.301 3.1631,23.1962 3.5145,10.8951 11.2466,17.5728 7.732,6.6777 20.3845,6.6777 14.4097,0 23.8991,-6.6777 9.8408,-7.0291 9.8408,-19.6816 0,-12.301 -9.8408,-19.3301 -9.4894,-7.0291 -29.8739,-16.8699 -20.3845,-9.8408 -32.6855,-22.4933 -12.301,-12.6524 -12.301,-33.3884 0,-25.6564 21.0875,-40.769 21.4388,-15.11266 58.3418,-15.11266 23.8991,0 37.9574,4.92036 14.0583,4.569 20.033,12.301 6.3262,7.3806 6.3262,15.8156 0,14.0583 -10.8951,20.3845 -10.8952,6.3262 -29.5224,6.3262 0,-9.1379 -2.8117,-18.2757 -2.4602,-9.4894 -8.4349,-15.4641 -5.6233,-6.3263 -15.8156,-6.3263 -13.7068,0 -21.7903,7.3806 -7.7321,7.0292 -7.7321,17.2214 0,11.5981 9.4894,18.2758 9.8407,6.6777 30.2253,15.8156 22.4932,10.1922 33.0369,23.1961 10.8952,13.0039 10.8952,32.6855 0,28.468 -21.7904,44.9865 -21.4388,16.167 -63.6137,16.167 z m 10.5437,-216.49748 q -3.1631,-7.02914 -8.0835,-16.51848 -4.9204,-9.84079 -10.1922,-18.97868 -5.2719,-9.48934 -9.1379,-16.16702 l 1.0544,-4.56894 h 22.1418 q 5.9747,5.62331 15.4641,15.11265 9.4893,9.48934 15.8155,16.51848 6.3263,-4.9204 14.4098,-10.54371 8.0835,-5.97477 15.8155,-11.59808 7.7321,-5.62331 13.7069,-9.48934 h 27.4136 l -1.0544,4.56894 q -7.0291,6.67768 -16.167,15.81557 -8.7864,8.78642 -17.9243,18.27576 -9.1379,9.13788 -15.8156,17.57285 z"
       style="font-style:italic;font-size:351.457px;font-family:'Noto Serif';-inkscape-font-specification:'Noto Serif Bold Italic';stroke-width:420.221"
       id="path59" /><path
       d="m 4475.066,968.15198 q -11.5981,0 -19.6816,-5.27185 -7.7321,-5.27186 -7.7321,-16.51848 0,-15.46411 9.8408,-22.1418 9.8408,-6.67768 22.8447,-6.67768 11.2466,0 19.6816,5.27186 8.435,4.92039 8.435,16.86993 0,14.40974 -10.5437,21.43888 -10.1923,7.02914 -22.8447,7.02914 z m -17.2214,223.52662 q -20.0331,0 -30.9283,-9.4893 -10.8951,-9.8408 -10.8951,-26.7107 0,-7.3806 1.4058,-17.9243 1.4058,-10.5438 4.2175,-23.8991 l 13.7068,-65.371 q 1.0544,-4.569 1.7573,-9.1379 0.7029,-4.5689 0.7029,-5.9748 0,-9.4893 -4.2175,-11.9495 -4.2175,-2.8117 -14.4097,-2.8117 h -6.3262 l 3.5145,-18.62719 h 82.9439 l -24.2505,114.22349 q -2.1088,9.4894 -3.5146,17.9243 -1.4058,8.435 -1.4058,15.8156 0,15.8156 12.3009,15.8156 5.6234,0 10.1923,-2.1088 4.5689,-2.1087 10.5437,-5.9747 l 8.435,11.9495 q -8.435,8.7864 -21.4389,16.5185 -13.0039,7.732 -32.334,7.732 z"
       style="font-style:italic;font-size:351.457px;font-family:'Noto Serif';-inkscape-font-specification:'Noto Serif Bold Italic';stroke-width:420.221"
       id="path60" /><path
       d="m 4694.0237,1191.6786 q -20.0331,0 -30.9283,-9.4893 -10.8951,-9.8408 -10.8951,-26.7107 0,-7.3806 1.4058,-17.9243 1.4058,-10.5438 4.2175,-23.8991 l 5.6233,-27.7651 q 1.4058,-6.6777 3.866,-18.6272 2.4602,-11.9496 2.4602,-20.736 0,-6.6777 -2.8116,-13.3554 -2.8117,-6.6777 -11.9496,-6.6777 -9.1379,0 -17.9243,8.435 -8.4349,8.435 -15.8155,21.4389 -7.3806,12.6524 -13.004,26.3593 -5.2718,13.7068 -7.3806,23.899 l -17.9243,81.5381 h -52.7185 l 29.5224,-139.8799 q 1.0544,-4.569 1.7573,-9.1379 0.7029,-4.5689 0.7029,-5.9748 0,-9.4893 -4.2175,-11.9495 -4.2175,-2.8117 -14.4097,-2.8117 h -6.3263 l 3.1631,-18.62719 h 78.0235 l -3.866,37.60589 h 2.1087 q 13.3554,-21.0874 29.1709,-30.9282 15.8156,-10.19226 39.3632,-10.19226 14.7612,0 23.5476,5.62336 8.7865,5.6233 12.6525,14.7611 3.866,9.1379 3.866,20.0331 0,8.7864 -2.4602,19.6816 -2.1087,10.8952 -3.866,20.033 l -7.7321,37.6059 q -2.1087,9.4894 -3.5145,17.9243 -1.4059,8.435 -1.4059,15.8156 0,15.8156 12.301,15.8156 5.6234,0 10.1923,-2.1088 4.5689,-2.1087 10.5437,-5.9747 l 8.435,11.9495 q -8.435,8.7864 -21.4389,16.5185 -13.0039,7.732 -32.334,7.732 z"
       style="font-style:italic;font-size:351.457px;font-family:'Noto Serif';-inkscape-font-specification:'Noto Serif Bold Italic';stroke-width:420.221"
       id="path61" /><path
       d="m 4841.9874,1191.6786 q -33.037,0 -53.7729,-18.2757 -20.736,-18.2758 -20.736,-55.5302 0,-19.6816 7.0291,-40.769 7.0292,-21.4389 21.0875,-39.7147 14.0582,-18.2758 35.8486,-29.5224 21.7903,-11.59806 51.3127,-11.59806 20.3845,0 36.903,7.73206 16.5185,7.3806 26.3593,23.8991 10.1922,16.167 10.1922,42.1748 0,18.9787 -6.6777,40.0661 -6.6776,21.0874 -20.7359,39.7146 -13.7069,18.6273 -35.4972,30.2254 -21.4389,11.598 -51.3127,11.598 z m 6.3262,-25.3049 q 11.2466,0 20.0331,-7.3806 8.7864,-7.3806 15.1126,-19.6816 6.6777,-12.301 10.8952,-26.7107 4.2175,-14.4097 6.3262,-28.468 2.1088,-14.0583 2.1088,-25.3049 0,-20.736 -7.3806,-29.8739 -7.0292,-9.1378 -19.3302,-9.1378 -13.3553,0 -23.8991,10.8951 -10.1922,10.8952 -17.2213,27.7651 -6.6777,16.5185 -10.1923,34.7943 -3.5146,18.2757 -3.5146,33.0369 0,21.7904 7.0292,30.9282 7.3806,9.1379 20.033,9.1379 z"
       style="font-style:italic;font-size:351.457px;font-family:'Noto Serif';-inkscape-font-specification:'Noto Serif Bold Italic';stroke-width:420.221"
       id="path62" /><path
       d="m 5190.6328,1191.6786 q -50.2583,0 -78.3749,-24.602 -28.1165,-24.9534 -28.1165,-69.9399 0,-31.6311 10.8951,-61.1535 11.2467,-29.5224 31.6312,-52.71857 20.3845,-23.54762 48.8525,-37.25444 28.8195,-13.70682 63.9652,-13.70682 35.1457,0 52.3671,11.59808 17.2213,11.24662 17.2213,30.2253 0,15.11265 -14.0582,23.54762 -14.0583,8.08353 -35.4972,8.08353 0,-7.38062 -1.0544,-16.16704 -1.0543,-8.78643 -4.2174,-16.51848 -2.8117,-8.08351 -8.7865,-13.00391 -5.9747,-5.27186 -15.8155,-5.27186 -16.5185,0 -30.2253,9.13789 -13.7069,8.78642 -24.2506,23.89907 -10.5437,14.76123 -17.9243,33.73983 -7.3806,18.9787 -11.2466,39.0118 -3.5146,20.033 -3.5146,38.6602 0,29.8739 15.1127,46.3924 15.4641,16.5184 45.6894,16.5184 24.2505,0 39.3632,-9.8408 15.1126,-10.1922 23.899,-22.1417 2.1088,1.7572 3.8661,4.9204 2.1087,3.1631 2.1087,7.0291 0,11.5981 -9.4893,23.1962 -9.4894,11.2466 -27.7651,18.9786 -17.9243,7.3806 -44.6351,7.3806 z"
       style="font-style:italic;font-size:351.457px;font-family:'Noto Serif';-inkscape-font-specification:'Noto Serif Bold Italic';stroke-width:420.221"
       id="path63" /><path
       d="m 5300.2871,1110.8435 8.0835,-36.903 h 91.3788 l -8.0835,36.903 z"
       style="font-style:italic;font-size:351.457px;font-family:'Noto Serif';-inkscape-font-specification:'Noto Serif Bold Italic';stroke-width:420.221"
       id="path64" /><path
       d="m 5378.3105,1272.5137 q -5.2718,0 -11.598,-1.0543 -6.3263,-0.7029 -9.8408,-1.7573 l 4.2174,-20.3845 q 2.8117,0.7029 7.7321,1.4058 4.5689,1.0544 8.435,1.0544 11.598,0 19.6816,-5.6233 7.732,-5.2719 13.7068,-18.2758 5.9747,-13.0039 10.8951,-36.5515 l 35.4972,-167.645 h -31.9826 l 3.5146,-16.5185 33.7399,-7.38059 2.8116,-13.00391 q 8.0835,-34.79424 27.7651,-52.01564 20.0331,-17.22139 55.5302,-17.22139 27.0622,0 41.1205,8.78643 14.0583,8.78642 14.0583,21.79033 0,11.59808 -10.5437,18.27577 -10.1923,6.32622 -29.8739,6.32622 0,-13.35536 -3.5146,-23.89907 -3.1631,-10.54372 -12.6524,-10.54372 -11.2466,0 -17.2214,9.8408 -5.9748,9.48934 -9.4893,29.17093 l -4.569,22.49325 h 44.2836 l -4.9204,23.89909 h -44.635 l -33.3884,157.1013 q -5.9748,28.1165 -16.87,46.0408 -10.5437,17.9243 -24.2505,27.7651 -13.7068,10.1923 -28.8195,14.0583 -14.7612,3.866 -28.8195,3.866 z"
       style="font-style:italic;font-size:351.457px;font-family:'Noto Serif';-inkscape-font-specification:'Noto Serif Bold Italic';stroke-width:420.221"
       id="path65" /><path
       d="m 5612.0291,1191.6786 q -16.5185,0 -27.7651,-8.4349 -11.2466,-8.435 -16.8699,-22.8447 -5.6234,-14.7612 -5.6234,-33.037 0,-16.5185 4.569,-34.4428 4.5689,-18.2757 13.7068,-35.1457 9.1379,-17.2214 22.4933,-30.9282 13.3553,-14.0583 30.5767,-22.1418 17.5729,-8.43496 39.0117,-8.43496 13.7069,0 27.4137,3.86606 14.0583,3.866 22.1418,8.4349 l 18.6272,-8.4349 h 18.6272 l -23.1961,109.6546 q -1.0544,3.866 -2.4602,10.8951 -1.4059,7.0292 -2.4602,14.4098 -1.0544,7.0291 -1.0544,11.598 0,8.7865 3.1631,13.0039 3.5146,4.2175 9.1379,4.2175 4.9204,0 9.4893,-2.1087 4.569,-2.1088 10.1923,-5.2719 l 7.732,14.0583 q -8.7864,7.0292 -22.8447,14.0583 -13.7068,7.0291 -32.6855,7.0291 -15.4641,0 -24.9534,-7.0291 -9.4894,-7.3806 -9.4894,-21.0874 0,-10.1923 2.4602,-22.8447 h -2.4602 q -8.7864,16.5184 -17.9243,27.7651 -8.7864,11.2466 -20.7359,17.2214 -11.5981,5.9747 -28.8195,5.9747 z m 22.1418,-28.1165 q 7.732,0 15.8156,-6.3263 8.0835,-6.6776 15.4641,-17.5728 7.3806,-11.2466 13.0039,-24.9535 5.9747,-13.7068 8.7864,-27.7651 l 12.301,-58.3418 q -3.5146,-4.9204 -9.4894,-7.3806 -5.9747,-2.4602 -13.0039,-2.4602 -12.301,0 -22.1418,7.3806 -9.8407,7.3806 -17.2213,19.6816 -7.3806,12.301 -12.6525,26.7107 -4.9204,14.4097 -7.3806,29.1709 -2.4602,14.4098 -2.4602,26.0079 0,20.3845 5.2719,28.1165 5.6233,7.7321 13.7068,7.7321 z"
       style="font-style:italic;font-size:351.457px;font-family:'Noto Serif';-inkscape-font-specification:'Noto Serif Bold Italic';stroke-width:420.221"
       id="path66" /><path
       d="m 5781.4317,1188.1641 3.866,-17.9243 117.3867,-146.5576 h -44.6351 q -14.0583,0 -20.3845,8.7864 -6.3262,8.7864 -13.0039,22.8447 l -0.7029,1.4058 h -21.4389 l 15.4641,-56.93599 h 150.7751 l -3.866,18.27579 -117.7381,146.2061 h 56.936 q 8.0835,0 13.7068,-4.569 5.6233,-4.9204 9.4894,-11.9495 3.866,-7.3806 7.0291,-15.1126 l 3.5146,-8.0836 h 20.3845 l -15.1127,63.6138 z"
       style="font-style:italic;font-size:351.457px;font-family:'Noto Serif';-inkscape-font-specification:'Noto Serif Bold Italic';stroke-width:420.221"
       id="path67" /><path
       d="m 6041.8616,1191.6786 q -16.5185,0 -27.7651,-8.4349 -11.2466,-8.435 -16.8699,-22.8447 -5.6233,-14.7612 -5.6233,-33.037 0,-16.5185 4.5689,-34.4428 4.5689,-18.2757 13.7068,-35.1457 9.1379,-17.2214 22.4933,-30.9282 13.3553,-14.0583 30.5767,-22.1418 17.5729,-8.43496 39.0118,-8.43496 13.7068,0 27.4136,3.86606 14.0583,3.866 22.1418,8.4349 l 18.6272,-8.4349 h 18.6272 l -23.1961,109.6546 q -1.0544,3.866 -2.4602,10.8951 -1.4058,7.0292 -2.4602,14.4098 -1.0544,7.0291 -1.0544,11.598 0,8.7865 3.1631,13.0039 3.5146,4.2175 9.1379,4.2175 4.9204,0 9.4893,-2.1087 4.569,-2.1088 10.1923,-5.2719 l 7.7321,14.0583 q -8.7865,7.0292 -22.8448,14.0583 -13.7068,7.0291 -32.6855,7.0291 -15.4641,0 -24.9534,-7.0291 -9.4893,-7.3806 -9.4893,-21.0874 0,-10.1923 2.4602,-22.8447 h -2.4602 q -8.7865,16.5184 -17.9243,27.7651 -8.7865,11.2466 -20.736,17.2214 -11.5981,5.9747 -28.8195,5.9747 z m 22.1418,-28.1165 q 7.7321,0 15.8156,-6.3263 8.0835,-6.6776 15.4641,-17.5728 7.3806,-11.2466 13.0039,-24.9535 5.9748,-13.7068 8.7864,-27.7651 l 12.301,-58.3418 q -3.5146,-4.9204 -9.4893,-7.3806 -5.9748,-2.4602 -13.0039,-2.4602 -12.301,0 -22.1418,7.3806 -9.8408,7.3806 -17.2214,19.6816 -7.3806,12.301 -12.6525,26.7107 -4.9204,14.4097 -7.3806,29.1709 -2.4602,14.4098 -2.4602,26.0079 0,20.3845 5.2719,28.1165 5.6233,7.7321 13.7068,7.7321 z"
       style="font-style:italic;font-size:351.457px;font-family:'Noto Serif';-inkscape-font-specification:'Noto Serif Bold Italic';stroke-width:420.221"
       id="path68" /></g></g></g>
</svg>
